<svg xmlns="http://www.w3.org/2000/svg" xmlns:xlink="http://www.w3.org/1999/xlink" width="150.895" height="67.498" viewBox="0 0 150.895 67.498">
  <defs>
    <radialGradient id="radial-gradient" cx="0.505" cy="0.5" r="0.501" gradientUnits="objectBoundingBox">
      <stop offset="0" stop-color="#fa003e"/>
      <stop offset="1" stop-color="#00599f"/>
    </radialGradient>
    <radialGradient id="radial-gradient-2" cx="1.851" cy="1.86" r="4.292" xlink:href="#radial-gradient"/>
    <radialGradient id="radial-gradient-3" cx="-0.938" cy="1.865" r="4.305" gradientTransform="translate(0.002)" xlink:href="#radial-gradient"/>
    <radialGradient id="radial-gradient-4" cx="-0.945" cy="-0.933" r="4.321" gradientTransform="translate(0.005) scale(0.99 1)" xlink:href="#radial-gradient"/>
    <radialGradient id="radial-gradient-5" cx="1.835" cy="-0.926" r="4.279" gradientTransform="translate(0.001)" xlink:href="#radial-gradient"/>
  </defs>
  <g id="header_logo" transform="translate(-0.001 0)">
    <path id="パス_1327" data-name="パス 1327" d="M128.28,62.257V47.12h5.641a8.462,8.462,0,0,1,3.281.592,6.864,6.864,0,0,1,2.36,1.627A6.7,6.7,0,0,1,141,51.708a8.81,8.81,0,0,1,.48,2.933,8.66,8.66,0,0,1-.536,3.122,6.751,6.751,0,0,1-1.523,2.407,6.864,6.864,0,0,1-2.388,1.533,8.4,8.4,0,0,1-3.1.545Zm9.637-7.588a6.147,6.147,0,0,0-.263-1.824,4.156,4.156,0,0,0-.78-1.42,3.526,3.526,0,0,0-1.26-.94,4.363,4.363,0,0,0-1.683-.32h-2.153V59.23h2.153a4.071,4.071,0,0,0,1.7-.338,3.488,3.488,0,0,0,1.25-.94,4.344,4.344,0,0,0,.771-1.429,6.044,6.044,0,0,0,.263-1.852Z" transform="translate(-50.928 -32.763)" fill="#c4c4c3"/>
    <path id="パス_1328" data-name="パス 1328" d="M144.64,62.257V47.12h6.826a4.457,4.457,0,0,1,1.965.442A5.293,5.293,0,0,1,155,48.737a5.462,5.462,0,0,1,1.034,1.645,4.974,4.974,0,0,1,.376,1.88,5.339,5.339,0,0,1-.15,1.326,5.21,5.21,0,0,1-.5,1.232,4.861,4.861,0,0,1-.771,1.034,4.635,4.635,0,0,1-1.034.771l3.328,5.641h-3.949l-2.924-4.917h-2.275v4.88Zm3.5-7.935h3.2a1.279,1.279,0,0,0,1.062-.583,2.407,2.407,0,0,0,.451-1.5,2.153,2.153,0,0,0-.508-1.495,1.523,1.523,0,0,0-1.109-.555h-3.093Z" transform="translate(-51.906 -32.763)" fill="#c4c4c3"/>
    <path id="パス_1329" data-name="パス 1329" d="M166.523,62.386a7,7,0,0,1-3.065-.668,7.456,7.456,0,0,1-2.369-1.73,7.842,7.842,0,0,1-1.523-2.463,7.649,7.649,0,0,1,4-9.825,7.183,7.183,0,0,1,3.028-.63,7.042,7.042,0,0,1,3.074.658,7.616,7.616,0,0,1,2.369,1.749,8.029,8.029,0,0,1,1.514,2.473,7.916,7.916,0,0,1,.527,2.821,7.737,7.737,0,0,1-4.522,7.023A7.164,7.164,0,0,1,166.523,62.386ZM162.583,54.7a5.642,5.642,0,0,0,.254,1.692,4.447,4.447,0,0,0,.762,1.467,3.667,3.667,0,0,0,1.241,1.025,3.761,3.761,0,0,0,1.711.385,3.592,3.592,0,0,0,1.749-.414,3.761,3.761,0,0,0,1.232-1.053,4.476,4.476,0,0,0,.733-1.467,5.642,5.642,0,0,0,.244-1.674,5.783,5.783,0,0,0-.254-1.7,4.353,4.353,0,0,0-.762-1.448,3.94,3.94,0,0,0-1.251-1.006,3.761,3.761,0,0,0-1.692-.367,3.629,3.629,0,0,0-1.739.395,3.883,3.883,0,0,0-1.241,1.034,4.363,4.363,0,0,0-.743,1.457,5.642,5.642,0,0,0-.263,1.674Z" transform="translate(-52.766 -32.76)" fill="#c4c4c3"/>
    <path id="パス_1330" data-name="パス 1330" d="M181.1,53.589v8.659h-3.5V47.12h2.736l7.042,8.894V47.12h3.5V62.257h-2.821Z" transform="translate(-53.877 -32.763)" fill="#c4c4c3"/>
    <path id="パス_1331" data-name="パス 1331" d="M205.823,59.23V62.3H195.18V47.12h10.455v3.065h-6.958v2.943h5.97v2.821h-5.97V59.23Z" transform="translate(-54.928 -32.763)" fill="#c4c4c3"/>
    <path id="パス_1332" data-name="パス 1332" d="M138.308,70.163a5.246,5.246,0,0,0-4.118-1.627,4.964,4.964,0,0,0-3.2.837,2.745,2.745,0,0,0-1.006,2.247,2.52,2.52,0,0,0,.254,1.194,2.181,2.181,0,0,0,.79.818,5.134,5.134,0,0,0,1.363.564c.545.16,1.213.32,1.984.489s1.533.357,2.191.564a6.065,6.065,0,0,1,1.664.771,3.31,3.31,0,0,1,1.072,1.138,3.459,3.459,0,0,1,.367,1.664,3.658,3.658,0,0,1-.395,1.739,3.356,3.356,0,0,1-1.1,1.232,5.209,5.209,0,0,1-1.683.752,8.763,8.763,0,0,1-2.191.254,8.462,8.462,0,0,1-5.933-2.238l.574-.874a6.694,6.694,0,0,0,2.322,1.58,7.841,7.841,0,0,0,3.084.583,5.641,5.641,0,0,0,3.074-.715,2.426,2.426,0,0,0,1.109-2.172,2.5,2.5,0,0,0-.3-1.26,2.633,2.633,0,0,0-.874-.94,5.943,5.943,0,0,0-1.467-.658c-.592-.179-1.288-.357-2.068-.527s-1.514-.348-2.125-.536a5.736,5.736,0,0,1-1.542-.724,2.821,2.821,0,0,1-.94-1.044,3.263,3.263,0,0,1-.32-1.542,3.912,3.912,0,0,1,.395-1.8,3.761,3.761,0,0,1,1.081-1.316,4.88,4.88,0,0,1,1.674-.818,8.076,8.076,0,0,1,2.153-.273,7.221,7.221,0,0,1,2.595.433,6.055,6.055,0,0,1,2.068,1.316Z" transform="translate(-50.934 -33.983)" fill="#c4c4c3"/>
    <path id="パス_1333" data-name="パス 1333" d="M154.565,67.68v15h-1.072V75.5h-9.468v7.183H143V67.68h1.072v6.882h9.468V67.68Z" transform="translate(-51.808 -33.992)" fill="#c4c4c3"/>
    <path id="パス_1334" data-name="パス 1334" d="M164.945,82.781a6.3,6.3,0,0,1-2.821-.658,7.3,7.3,0,0,1-3.676-4.146,7.982,7.982,0,0,1-.508-2.821,7.852,7.852,0,0,1,.536-2.877,8.142,8.142,0,0,1,1.467-2.426,7.118,7.118,0,0,1,2.228-1.683,6.384,6.384,0,0,1,2.821-.621,6.187,6.187,0,0,1,2.821.668,7.212,7.212,0,0,1,2.219,1.739,8.1,8.1,0,0,1,1.429,2.435,7.935,7.935,0,0,1-1.514,8.076,7,7,0,0,1-2.228,1.664,6.328,6.328,0,0,1-2.774.649ZM159,75.175a7.409,7.409,0,0,0,.432,2.482,6.827,6.827,0,0,0,1.232,2.106,5.886,5.886,0,0,0,1.88,1.467,5.3,5.3,0,0,0,2.407.555,5.087,5.087,0,0,0,2.435-.574,5.914,5.914,0,0,0,1.88-1.5,7.174,7.174,0,0,0,1.166-7.033,6.789,6.789,0,0,0-1.241-2.115,6.131,6.131,0,0,0-1.88-1.467,5.171,5.171,0,0,0-2.369-.555,5.3,5.3,0,0,0-2.454.574,6.13,6.13,0,0,0-1.88,1.514,6.957,6.957,0,0,0-1.2,2.125,7.052,7.052,0,0,0-.4,2.426Z" transform="translate(-52.701 -33.984)" fill="#c4c4c3"/>
    <path id="パス_1335" data-name="パス 1335" d="M180.6,67.783h1.053l2.247,5.453,2.238-5.453h1.053L184.552,74.1l3.15,7.305,5.745-13.727h1.194l-6.422,15h-1.006l-3.291-7.71-3.319,7.71h-.94l-6.4-15h1.156l5.773,13.727,3.1-7.305Z" transform="translate(-53.617 -33.992)" fill="#c4c4c3"/>
    <path id="パス_1336" data-name="パス 1336" d="M128.505,95.253a2.181,2.181,0,0,0,.63.282,2.688,2.688,0,0,0,.856.122,1.814,1.814,0,0,0,.94-.216,1.335,1.335,0,0,0,.545-.63,3.414,3.414,0,0,0,.244-1.034c0-.414.056-.874.056-1.4v-4h.771v4A14.3,14.3,0,0,1,132.463,94a3.62,3.62,0,0,1-.348,1.26,1.881,1.881,0,0,1-.771.809,2.82,2.82,0,0,1-1.373.291,2.952,2.952,0,0,1-1.7-.489Z" transform="translate(-50.928 -35.23)" fill="#ff0026"/>
    <path id="パス_1337" data-name="パス 1337" d="M141.951,88.38h.658l3.263,7.86h-.818l-1.025-2.463H140.5L139.5,96.24h-.827Zm1.88,4.8-1.589-3.892-1.6,3.892Z" transform="translate(-51.549 -35.23)" fill="#ff0026"/>
    <path id="パス_1338" data-name="パス 1338" d="M152.57,96.24V88.38h3.225a2.125,2.125,0,0,1,.94.216,2.4,2.4,0,0,1,.733.564,2.82,2.82,0,0,1,.489.79,2.463,2.463,0,0,1,.169.94,2.633,2.633,0,0,1-.16.94,2.378,2.378,0,0,1-.47.79,2.322,2.322,0,0,1-.715.555,1.984,1.984,0,0,1-.94.207H153.3v2.905Zm.78-3.592h2.51a1.26,1.26,0,0,0,.621-.15,1.391,1.391,0,0,0,.48-.395,1.985,1.985,0,0,0,.31-.574,2.059,2.059,0,0,0,.113-.686,1.881,1.881,0,0,0-.122-.686,2.172,2.172,0,0,0-.348-.574,1.543,1.543,0,0,0-1.119-.517H153.35Z" transform="translate(-52.38 -35.23)" fill="#ff0026"/>
    <path id="パス_1339" data-name="パス 1339" d="M166.34,88.38h.649l3.263,7.86h-.818l-1.015-2.463h-3.535l-1.006,2.463h-.837Zm1.88,4.8-1.58-3.892-1.608,3.892Z" transform="translate(-53.006 -35.23)" fill="#ff0026"/>
    <path id="パス_1340" data-name="パス 1340" d="M177.733,89.819V96.24H177V88.38h.592l5.209,6.582V88.389h.78V96.24H182.9Z" transform="translate(-53.841 -35.23)" fill="#ff0026"/>
    <path id="パス_1341" data-name="パス 1341" d="M102.254,54.058h-.244c-4.24,0-9.148,2.821-15,8.688L85.95,63.808h0L81.522,59.37l-1.777-1.777-1.072-1.062C73.4,51.247,70.719,46.8,70.719,43.311v-.244a9.017,9.017,0,1,1,18.033,0v.244c0,3.253-2.322,7.324-6.892,12.129h0l1.749,1.786c5.134-5.369,7.635-9.929,7.635-13.906v-.263a11.536,11.536,0,0,0-23.064,0v.216c0,4.259,2.821,9.167,8.688,15.043l1.1,1.062L73.53,63.817h0l-1.786,1.777-1.062,1.072c-5.275,5.275-9.722,7.954-13.219,7.954h-.235a9.026,9.026,0,0,1,0-18.043h.235c3.253,0,7.334,2.322,12.138,6.9h0l1.786-1.8c-5.378-5.124-9.929-7.625-13.915-7.625h-.254a11.536,11.536,0,0,0,0,23.064h.216c4.269,0,9.167-2.821,15.043-8.688l1.072-1.062h0l4.419,4.438h0L79.736,73.6h0l1.053,1.062c5.275,5.275,7.954,9.722,7.954,13.219v.235a9.017,9.017,0,0,1-18.033,0v-.235c0-3.253,2.322-7.324,6.892-12.119l-1.786-1.786C70.691,79.34,68.2,83.9,68.2,87.878v.263a11.536,11.536,0,0,0,23.064,0v-.216c0-4.259-2.821-9.167-8.7-15.043L81.5,71.809h0l4.438-4.447h0l1.777-1.777h0l1.072-1.072c5.275-5.275,9.722-7.954,13.163-7.954h.244a9.026,9.026,0,0,1,0,18.043h-.244c-3.253,0-7.324-2.322-12.129-6.892h0l-1.768,1.777c5.416,5.143,9.976,7.635,13.953,7.635h.263a11.536,11.536,0,0,0,0-23.064ZM82.566,65.594a2.821,2.821,0,1,1-2.821-2.821A2.821,2.821,0,0,1,82.566,65.594Z" transform="translate(-46.01 -31.85)" fill="url(#radial-gradient)"/>
    <path id="パス_1342" data-name="パス 1342" d="M68.359,53.937c-.461-.489-.94-1-1.41-1.476-.752-1.514-.611-2.285.423-4.071-2.068,1.2-2.821,1.2-4.842,0,1.2,2.068,1.2,2.821,0,4.842,1.786-1.034,2.557-1.175,4.062-.423.489.48.987.94,1.486,1.42q2,1.88,4.043,3.761h0C70.9,56.626,69.638,55.272,68.359,53.937Z" transform="translate(-46.998 -32.839)" fill="url(#radial-gradient-2)"/>
    <path id="パス_1343" data-name="パス 1343" d="M100.609,48.39c-2.068,1.2-2.821,1.2-4.842,0,1.044,1.8,1.185,2.567.4,4.1l-.94.94c-1.41,1.514-2.8,3.056-4.231,4.532h0q2.275-2.115,4.513-4.259l.94-.94c1.523-.762,2.294-.621,4.081.414C99.406,51.164,99.406,50.458,100.609,48.39Z" transform="translate(-48.7 -32.839)" fill="url(#radial-gradient-3)"/>
    <path id="パス_1344" data-name="パス 1344" d="M100.614,81.626c-1.8,1.044-2.557,1.175-4.081.414l-.94-.94q-2.228-2.144-4.5-4.259c1.41,1.514,2.821,3.009,4.259,4.5.31.32.611.649.94.94.771,1.523.63,2.294-.414,4.09,2.068-1.2,2.821-1.2,4.842,0C99.467,84.4,99.467,83.694,100.614,81.626Z" transform="translate(-48.705 -34.54)" fill="url(#radial-gradient-4)"/>
    <path id="パス_1345" data-name="パス 1345" d="M72.123,76.86q-2.275,2.115-4.513,4.259l-.94.94c-1.523.771-2.294.63-4.09-.414,1.2,2.068,1.2,2.774,0,4.842,2.078-1.194,2.774-1.194,4.852,0-1.044-1.8-1.185-2.557-.414-4.09l.94-.94c1.439-1.486,2.821-3,4.269-4.513Z" transform="translate(-47.001 -34.541)" fill="url(#radial-gradient-5)"/>
    <path id="パス_1346" data-name="パス 1346" d="M87.539,43.4a6.064,6.064,0,0,1-6.064-6.064A6.064,6.064,0,0,1,75.41,43.4a6.064,6.064,0,0,1,6.064,6.064A6.064,6.064,0,0,1,87.539,43.4Z" transform="translate(-47.768 -32.178)" fill="#19c094"/>
    <path id="パス_1347" data-name="パス 1347" d="M111.5,67.344a6.055,6.055,0,0,1-6.064-6.064,6.064,6.064,0,0,1-6.074,6.064,6.074,6.074,0,0,1,6.074,6.074,6.064,6.064,0,0,1,6.064-6.074Z" transform="translate(-49.199 -33.609)" fill="#005aa7"/>
    <path id="パス_1348" data-name="パス 1348" d="M87.559,91.284a6.064,6.064,0,0,1-6.064-6.064,6.064,6.064,0,0,1-6.064,6.064,6.064,6.064,0,0,1,6.064,6.064,6.064,6.064,0,0,1,6.064-6.064Z" transform="translate(-47.769 -35.041)" fill="#ff8b00"/>
    <path id="パス_1349" data-name="パス 1349" d="M63.618,67.344a6.055,6.055,0,0,1-6.064-6.064,6.064,6.064,0,0,1-6.074,6.064,6.074,6.074,0,0,1,6.074,6.074,6.064,6.064,0,0,1,6.064-6.074Z" transform="translate(-46.337 -33.609)" fill="#ff0026"/>
  </g>
</svg>
