<svg xmlns="http://www.w3.org/2000/svg" xmlns:xlink="http://www.w3.org/1999/xlink" width="40" height="40" viewBox="0 0 40 40">
  <defs>
    <clipPath id="clip-path">
      <rect id="Rectangle_14169" data-name="Rectangle 14169" width="40" height="40" fill="#fff"/>
    </clipPath>
  </defs>
  <g id="Group_25030" data-name="Group 25030" transform="translate(0 0)">
    <g id="Group_25029" data-name="Group 25029" transform="translate(0 0)" clip-path="url(#clip-path)">
      <path id="Path_11319" data-name="Path 11319" d="M28.306,40H11.7A11.708,11.708,0,0,1,0,28.3V11.694A11.708,11.708,0,0,1,11.7,0h16.61A11.708,11.708,0,0,1,40,11.694V28.3A11.708,11.708,0,0,1,28.306,40M11.7,3.728a7.975,7.975,0,0,0-7.966,7.966V28.3A7.975,7.975,0,0,0,11.7,36.272h16.61A7.975,7.975,0,0,0,36.272,28.3V11.694a7.975,7.975,0,0,0-7.966-7.966Z" transform="translate(0 0)" fill="#fff"/>
      <path id="Path_11320" data-name="Path 11320" d="M35.952,10a2.492,2.492,0,1,1-2.493-2.493A2.493,2.493,0,0,1,35.952,10" transform="translate(-2.772 -0.673)" fill="#fff"/>
      <path id="Path_11321" data-name="Path 11321" d="M20.95,31.288A10.339,10.339,0,1,1,31.288,20.95,10.351,10.351,0,0,1,20.95,31.288m0-16.949a6.61,6.61,0,1,0,6.61,6.61,6.618,6.618,0,0,0-6.61-6.61" transform="translate(-0.95 -0.95)" fill="#fff"/>
    </g>
  </g>
</svg>
