<svg xmlns="http://www.w3.org/2000/svg" xmlns:xlink="http://www.w3.org/1999/xlink" width="563.876" height="316.195" viewBox="0 0 563.876 316.195">
  <defs>
    <linearGradient id="linear-gradient" x1="-0.004" x2="0.998" gradientUnits="objectBoundingBox">
      <stop offset="0" stop-color="#00a0f5"/>
      <stop offset="1" stop-color="#773ab4"/>
    </linearGradient>
  </defs>
  <g id="Group_25042" data-name="Group 25042" transform="translate(-99 -169.869)">
    <g id="Group_24276" data-name="Group 24276" transform="translate(-641 72)">
      <g id="Group_24720" data-name="Group 24720" transform="translate(-8 -89.77)">
        <g id="Header" transform="translate(-29 -20.23)">
          <rect id="Rectangle_14072" data-name="Rectangle 14072" width="49" height="6" transform="translate(777 447)" fill="url(#linear-gradient)"/>
        </g>
      </g>
    </g>
    <g id="テキスト_パス化">
      <path id="Path_11375" data-name="Path 11375" d="M43.2-51.868a19.774,19.774,0,0,1,3.333,3.491.777.777,0,0,1,.21.446q0,.21-.472.577l-1.234.814,4.567-.1q.577,0,.577.525V-42.5q0,.42-.1.5a.9.9,0,0,1-.472.079l-7.218-.1H37.133A43.551,43.551,0,0,0,39.39-31.869a35.486,35.486,0,0,0,2.572-4.724,24.657,24.657,0,0,0,1.024-3.333,27.483,27.483,0,0,1,4.331,1.654q.656.341.656.761a1.38,1.38,0,0,1-.472.814,6.936,6.936,0,0,0-1.076,1.6A48.125,48.125,0,0,1,41.7-27.092q2.231,3.386,3.963,3.386,1.024,0,1.6-1.391a21.2,21.2,0,0,0,.945-3.779,9.93,9.93,0,0,0,2.677,1.785q1.391.656,1.391,1.234a5.445,5.445,0,0,1-.262,1.181,12.029,12.029,0,0,1-2.651,5.144,4.906,4.906,0,0,1-3.543,1.365q-3.911,0-7.559-4.934a33.6,33.6,0,0,1-4.094,3.517,4.156,4.156,0,0,1-1.286.709q-.315,0-1.181-1.024a17.257,17.257,0,0,0-1.785-1.706q-.052.262-.577.262l-4.567-.1H19.706l-4.567.1q-.42,0-.5-.1a.98.98,0,0,1-.079-.5l.1-3.412v-3.569l-.1-3.438q0-.42.1-.5a.9.9,0,0,1,.472-.079l4.567.1h5.066l4.541-.1q.446,0,.525.1a.9.9,0,0,1,.079.472l-.1,3.438v3.569l.052,2.94A27.771,27.771,0,0,0,35.795-27.2q-2.572-5.3-3.832-14.829H12.829v3.6a51.892,51.892,0,0,1-.971,10.813,31.214,31.214,0,0,1-3.6,9.4q-.6,1.076-.971,1.076-.236,0-1.129-.814a13.477,13.477,0,0,0-3.438-2.31,22.5,22.5,0,0,0,3.858-8.556A51.162,51.162,0,0,0,7.606-40.241L7.5-46.12q0-.367.131-.446a1.059,1.059,0,0,1,.525-.079l7.244.1H31.49q-.577-5.118-.656-5.485,2.467.079,5.433.367.814.1.814.6a2.981,2.981,0,0,1-.289.971,5.547,5.547,0,0,0-.1,1.286q0,.262.052,2.257h5.17a32.406,32.406,0,0,0-2.467-2.782.623.623,0,0,1-.262-.5q0-.315.42-.525l2.467-1.575a1.292,1.292,0,0,1,.577-.21A.923.923,0,0,1,43.2-51.868ZM25.4-25.2v-3.937H19.023V-25.2ZM35.663-13.5a14.561,14.561,0,0,0,3.884,1.627,3.817,3.817,0,0,1,1.076.42.718.718,0,0,1,.236.6q0,.184-.079.84Q40.23-6.1,37.842-4.73,35.454-3.444,27.291-3.444,20.073-3.444,18-4.52q-1.995-1.129-1.995-4.672v-4.724a25.817,25.817,0,0,0-.262-4.094,40.007,40.007,0,0,1,5.3.315q.971.184.971.5a2.248,2.248,0,0,1-.262.919,4.8,4.8,0,0,0-.315,1.916v3.438a2.388,2.388,0,0,0,.84,2.178q.971.472,5.433.472,3.7,0,4.541-.079a4.915,4.915,0,0,0,2.021-.525Q35.585-9.56,35.663-13.5Zm-5.59-26.115q.394,0,.472.1a1.242,1.242,0,0,1,.079.551v3.1q0,.6-.551.6l-4.829-.1H19.758l-4.777.1a.831.831,0,0,1-.525-.1.98.98,0,0,1-.079-.5v-3.1q0-.472.131-.577a.82.82,0,0,1,.472-.079l4.777.1h5.485Zm14.75,21.863a44.221,44.221,0,0,1,6.352,8.976,1.412,1.412,0,0,1,.157.472q0,.236-.6.6L47.4-5.649a1.961,1.961,0,0,1-.735.341q-.184,0-.341-.394a34.3,34.3,0,0,0-5.748-9.291q-.289-.289-.289-.446,0-.21.551-.525L43.695-17.8a2.527,2.527,0,0,1,.63-.262Q44.482-18.063,44.823-17.748ZM9.076-16.725q.157-.472.394-.472a2.535,2.535,0,0,1,.682.21L13.3-15.6q.682.315.682.6a1.528,1.528,0,0,1-.079.367A39.414,39.414,0,0,1,8.42-4.94q-.262.341-.472.341a1.5,1.5,0,0,1-.6-.236L3.958-6.725Q3.433-7.04,3.433-7.3a.885.885,0,0,1,.21-.446A29.666,29.666,0,0,0,9.076-16.725ZM28.21-20.006a32.393,32.393,0,0,1,5.065,5.328.858.858,0,0,1,.236.42q0,.157-.42.446l-2.782,2.152a1.413,1.413,0,0,1-.709.367q-.21,0-.42-.367a38.118,38.118,0,0,0-4.7-5.59q-.289-.315-.289-.42,0-.157.525-.551l2.362-1.732a1.2,1.2,0,0,1,.63-.289A.951.951,0,0,1,28.21-20.006Zm53.91,7.428a18.9,18.9,0,0,0-.472,2.467l-.184.971A30.935,30.935,0,0,0,87.6-21.16a72.645,72.645,0,0,0,1.758-13.727q-1.968.026-3.517.079l-1.1.026a.893.893,0,0,1-.551-.1.9.9,0,0,1-.079-.472V-39.3q0-.42.1-.5a1.059,1.059,0,0,1,.525-.079l4.856.1.052-4.3a60.373,60.373,0,0,0-.394-7.585q2.756.079,5.38.394.814.079.814.577a5.087,5.087,0,0,1-.315,1.286,22.97,22.97,0,0,0-.341,5.485q0,2.808-.052,4.147h3.071l5.853-.1a.58.58,0,0,1,.656.656q-.1,1.811-.1,5.092a165.453,165.453,0,0,1-1.575,24.619,7.14,7.14,0,0,1-2.336,4.646A7.1,7.1,0,0,1,95.82-3.6q-1.129,0-2.94-.1-.971-.079-1.155-.367A5.967,5.967,0,0,1,91.463-5.6a12.473,12.473,0,0,0-1.076-3.6,32.337,32.337,0,0,0,4.462.42q2.415,0,2.913-3.386,1.26-7.664,1.339-22.729H94.586a91.21,91.21,0,0,1-1.995,15.433,33.631,33.631,0,0,1-7.953,15.3q-.814.814-1.129.814-.262,0-1.024-.761a9.443,9.443,0,0,0-3.438-2.546q1.207-1.1,1.732-1.68a4.065,4.065,0,0,1-1.024.21Q71.043-6.384,60.991-5.334A8.23,8.23,0,0,0,59-4.94a2.628,2.628,0,0,1-.919.315q-.5,0-.735-.919-.472-2.021-.919-4.724,1.1.052,2.231.052,1.365,0,3.412-.1,4.121-.236,6.063-.42v-3.123H64.954l-6.535.1q-.6,0-.6-.525v-3.228q0-.446.1-.525a.98.98,0,0,1,.5-.079l6.535.1H68.13v-2.31H65.978l-6.43.1a.957.957,0,0,1-.577-.1.98.98,0,0,1-.079-.5l.1-4.436V-31l-.1-4.409q0-.446.1-.525a1.242,1.242,0,0,1,.551-.079l6.43.1H68.13v-2.362H64.167l-6.824.1q-.446,0-.525-.1a.9.9,0,0,1-.079-.472v-3.176a.831.831,0,0,1,.1-.525.98.98,0,0,1,.5-.079l6.824.131H68.13v-2.441q-4.619.446-6.929.551-.5.026-.761.026a1,1,0,0,1-.814-.289,3.558,3.558,0,0,1-.42-.919,11.214,11.214,0,0,0-1.654-2.913,105.089,105.089,0,0,0,19.028-2.047,20.106,20.106,0,0,0,2.966-.892,24.135,24.135,0,0,1,3.071,2.94,1.528,1.528,0,0,1,.42.971q0,.551-1.129.551a21.056,21.056,0,0,0-2.415.367q-3.622.735-6.509,1.076v3.018h3.1l6.8-.131q.525,0,.525.6v3.176a1.162,1.162,0,0,1-.052.5q-.052.079-.367.079l-6.9-.1h-3.1v2.362H75.3l6.43-.1q.446,0,.525.1a.98.98,0,0,1,.079.5L82.224-31v5.748l.1,4.436q0,.446-.1.525a.98.98,0,0,1-.5.079l-6.43-.1h-2.31v2.31h1.968l6.562-.1q.446,0,.525.1a.98.98,0,0,1,.079.5v3.228q0,.525-.6.525l-6.562-.1H72.985v2.572Q77.395-11.764,82.119-12.578ZM77.657-23.759v-2.835H72.985v2.835Zm0-8.766H72.985v2.808h4.672ZM63.668-23.759H68.13v-2.835H63.668Zm0-5.958H68.13v-2.808H63.668Zm74.513-10.157q-2.021,14.934-6.719,23.149-3.543,6.194-9.16,6.194-4.068,0-6.876-4.094a16.966,16.966,0,0,1-2.625-9.711,19.274,19.274,0,0,1,6.063-13.989q6.876-6.876,17.48-6.876,10.1,0,15.748,5.984a17.774,17.774,0,0,1,4.724,12.651q0,14.593-16.561,19.58a3.052,3.052,0,0,1-.787.131q-.787,0-1.522-1.1a11.237,11.237,0,0,0-3.753-3.386q8.294-1.968,12.073-5.538,4.147-3.911,4.147-10.525a12.259,12.259,0,0,0-3.753-9.081,11.3,11.3,0,0,0-8.268-3.386Zm-6.247.315a16.522,16.522,0,0,0-9.186,4.882,14.816,14.816,0,0,0-4.2,9.947,11.6,11.6,0,0,0,1.339,5.958q1.05,1.732,2.31,1.732,2.2,0,4.042-3.281a46.1,46.1,0,0,0,3.6-9.239A67.568,67.568,0,0,0,131.934-39.559Zm41.232,4.987a80.5,80.5,0,0,1,17.086,7.323q.709.367.709.919a1.289,1.289,0,0,1-.1.472,30.55,30.55,0,0,1-2.31,4.672q-.341.6-.709.6a.891.891,0,0,1-.6-.262,59.232,59.232,0,0,0-14.12-6.9v11.889q0,2.94.21,10.525v.157q0,.656-.971.656-1.207.079-2.388.079-1.207,0-2.388-.079-1.024,0-1.024-.814.21-5.2.21-10.577V-42.367a48.565,48.565,0,0,0-.525-7.953,37.888,37.888,0,0,1,6.719.866q1.024.21,1.024.919a2.783,2.783,0,0,1-.446,1.234q-.367.709-.367,5.039Zm9.685-11.233,2.835-1.968a.6.6,0,0,1,.341-.131.841.841,0,0,1,.472.236,22.665,22.665,0,0,1,5.092,5.748.67.67,0,0,1,.157.394.643.643,0,0,1-.289.472L189.176-39.4a.72.72,0,0,1-.42.184q-.236,0-.472-.341A28.012,28.012,0,0,0,182.851-45.806Zm4.934-3.543,2.7-1.942a.6.6,0,0,1,.341-.131.741.741,0,0,1,.446.236,20.757,20.757,0,0,1,5.118,5.538.915.915,0,0,1,.157.446.663.663,0,0,1-.315.525L194.084-43a.786.786,0,0,1-.42.157.6.6,0,0,1-.5-.341A25.431,25.431,0,0,0,187.785-49.349Zm47.143,36.115H214.089v3.176q0,.682-.262.866a1.851,1.851,0,0,1-.919.184q-1.05.052-2.126.052t-2.126-.052q-1.129-.052-1.129-.656V-9.8q.157-8.373.157-10.682V-37.144q0-3.15-.1-5.407,0-.761.6-.761,2.835.157,9.606.157h12.782q7.585,0,10.1-.1.709,0,.709.814v.262l-.052,8.687v12.834q0,2.913.262,10.236,0,.919-1.024.919-1.26.026-2.467.026-1.26,0-2.467-.052-.5,0-.63-.157a1.846,1.846,0,0,1-.079-.682Zm0-5.7v-18.53H214.036v18.53Zm16.724-11.6a79.369,79.369,0,0,0,11.6.656h17.322q2.546,0,6.562-.079,5.118-.079,5.8-.1h.262q.709,0,.709.761.079,1.234.079,2.546,0,1.286-.079,2.52,0,.814-.761.814h-.21q-8.058-.1-11.994-.1H261.6l-7.9.656A1.183,1.183,0,0,1,252.466-24,51.11,51.11,0,0,1,251.652-30.53Zm49.925-9.895q1.339-1.627,3.753-4.2a.977.977,0,0,1,.761-.42,1.688,1.688,0,0,1,.709.262,48.429,48.429,0,0,1,10.262,7.638,1.292,1.292,0,0,1,.472.761,1.172,1.172,0,0,1-.315.682q-1.758,2.336-3.333,4.042-.446.42-.656.42a1.148,1.148,0,0,1-.682-.42A55.4,55.4,0,0,0,301.578-40.425ZM302.759-13.6a39.466,39.466,0,0,0,7.27-2.677q5.2-2.7,8.635-4.961,3.018-1.968,6.824-5.039a113.764,113.764,0,0,0,8.582-7.559,81.276,81.276,0,0,0,6.168-7.06,25.185,25.185,0,0,0,1.5,6.273A2.825,2.825,0,0,1,342-33.6a2.939,2.939,0,0,1-.866,1.627,82.834,82.834,0,0,1-12.362,11.391,123.857,123.857,0,0,1-16.22,10.525,21.046,21.046,0,0,0-3.6,2.493,1.537,1.537,0,0,1-.971.525,1.337,1.337,0,0,1-.919-.577A35.446,35.446,0,0,1,302.759-13.6ZM348.091-30.32q.157-.236,1.785-2.913.709-1.155,1.076-1.654a1.065,1.065,0,0,1,.814-.551.582.582,0,0,1,.184.026,38.483,38.483,0,0,1,10.341,5.275q.577.42.577.787a1.62,1.62,0,0,1-.21.6,23.442,23.442,0,0,1-2.362,4.094q-.446.525-.709.525a1.155,1.155,0,0,1-.63-.315A48.284,48.284,0,0,0,348.091-30.32ZM354.6-42.945l2.835-4.3q.367-.6.761-.6a1.436,1.436,0,0,1,.6.184,35.213,35.213,0,0,1,10.1,5.958.843.843,0,0,1,.42.709,1.293,1.293,0,0,1-.21.682,20.406,20.406,0,0,1-2.756,4.042.577.577,0,0,1-.525.315,1.423,1.423,0,0,1-.814-.367A46.462,46.462,0,0,0,354.6-42.945Zm-2.257,30.629a28.011,28.011,0,0,0,7.3-2.625,98.755,98.755,0,0,0,14.724-9.291,94.745,94.745,0,0,0,15.485-15.013,33.69,33.69,0,0,0,1.575,6.037,2.825,2.825,0,0,1,.262,1.024,1.793,1.793,0,0,1-.577,1.234,116.993,116.993,0,0,1-13.674,12.414,128.733,128.733,0,0,1-16.063,10.1,22.352,22.352,0,0,0-3.123,1.837,1.231,1.231,0,0,1-.866.42,1.382,1.382,0,0,1-1.076-.656A32.372,32.372,0,0,1,352.343-12.315Zm73.048-11.548V-29.27H412.977q-1.417,0-4.068.157-2.415.131-3.464.157-.709.079-.814-1.234-.1-1.339-.262-4.409,3.071.262,8.609.262h9.344q5.59,0,7.953-.1.814,0,.814.709v.157l-.1,7.034v12.388q0,2.257.21,7.638,0,.63-.289.814a2.052,2.052,0,0,1-.892.21q-1.732.1-3.648.1a1.278,1.278,0,0,1-.84-.184.99.99,0,0,1-.131-.6V-7.8H412.662q-3.281,0-7.428.262-.682,0-.761-1.076a31.507,31.507,0,0,1-.262-4.462q2.913.21,8.661.21h12.519V-18.8H414q-2.677,0-7.375.21-.84,0-.919-1.181a32.644,32.644,0,0,1-.21-4.357q3.622.262,8.4.262ZM445.16-30.53a79.369,79.369,0,0,0,11.6.656h17.322q2.546,0,6.562-.079,5.118-.079,5.8-.1h.262q.709,0,.709.761.079,1.234.079,2.546,0,1.286-.079,2.52,0,.814-.761.814h-.21q-8.058-.1-11.994-.1H455.107l-7.9.656A1.182,1.182,0,0,1,445.973-24,51.113,51.113,0,0,1,445.16-30.53Z" transform="translate(99.861 222)" fill="#00a0f5"/>
      <path id="Path_11374" data-name="Path 11374" d="M12.517-9.994a.268.268,0,0,1,.169.034.292.292,0,0,1,.025.152v1.143q0,.144-.042.169a.265.265,0,0,1-.152.025L10.544-8.5H9.638v2.3h1.422L13.3-6.235a.309.309,0,0,1,.186.034.292.292,0,0,1,.025.152v1.2q0,.127-.034.157a.322.322,0,0,1-.178.03l-2.235-.034H6.692L4.457-4.66a.309.309,0,0,1-.186-.034.292.292,0,0,1-.025-.152v-1.2q0-.135.042-.161a.342.342,0,0,1,.169-.025L6.692-6.2H7.886V-8.5H7.208L5.2-8.47q-.144,0-.169-.034a.316.316,0,0,1-.025-.161V-9.808q0-.135.034-.161A.316.316,0,0,1,5.2-9.994l2.007.034h.677v-1.82H6.878l-2.2.034q-.169,0-.169-.195V-13.1q0-.186.169-.186l2.2.034h4.03l2.218-.034q.169,0,.169.186v1.16q0,.195-.169.195l-2.218-.034H9.638v1.82h.906Zm-.593,1.727a7.277,7.277,0,0,1,.855,1.253.33.33,0,0,1,.042.119q0,.068-.186.161l-.745.4a.455.455,0,0,1-.178.059q-.085,0-.169-.186a4.654,4.654,0,0,0-.8-1.278.192.192,0,0,1-.059-.11q0-.042.195-.152l.694-.364a.384.384,0,0,1,.144-.042Q11.8-8.411,11.924-8.267ZM3.339-.859H1.866a.254.254,0,0,1-.157-.03.275.275,0,0,1-.03-.165l.034-6.655v-3.446L1.68-15.9q0-.144.034-.169a.316.316,0,0,1,.161-.025l2.3.034h9.415l2.3-.034q.144,0,.169.034a.316.316,0,0,1,.025.161l-.034,4.157v4.022l.034,6.655a.268.268,0,0,1-.034.169.292.292,0,0,1-.152.025h-1.49q-.144,0-.169-.034a.316.316,0,0,1-.025-.161v-.813H3.534v.83A.268.268,0,0,1,3.5-.884.316.316,0,0,1,3.339-.859Zm.195-13.572V-3.492H14.219V-14.431ZM29.758-3.2q1.033.068,1.609.068a2.033,2.033,0,0,0,.212-.008.842.842,0,0,0,.567-.152.6.6,0,0,0,.127-.432V-6.667a4.913,4.913,0,0,0-.864,1.092q-.237.364-.347.364a.937.937,0,0,1-.389-.212A10.78,10.78,0,0,1,27.159-9.7l-.059.135a10.088,10.088,0,0,1-1.431,2.455,10.258,10.258,0,0,1-2.125,1.913.816.816,0,0,1-.381.229q-.1,0-.33-.347A4.625,4.625,0,0,0,22-6.32v2.413l.034,2.515q0,.119-.042.144a.316.316,0,0,1-.161.025H20.318q-.186,0-.186-.169l.034-2.726v-6.714l-.034-2.735q0-.144.034-.169a.316.316,0,0,1,.161-.025l2.337.034h3.4q.042-.8.042-1.245a13.545,13.545,0,0,0-.11-1.863q.686.025,1.9.127.262.025.262.2a1.335,1.335,0,0,1-.1.364,7.88,7.88,0,0,0-.085,1.27q0,.381-.034,1.143h3.691l2.328-.034q.135,0,.161.034a.316.316,0,0,1,.025.161l-.034,2.845V-6.2l.042,2.743v.279a1.708,1.708,0,0,1-.559,1.439,5.1,5.1,0,0,1-2.692.449.8.8,0,0,1-.491-.093.985.985,0,0,1-.169-.466A4.1,4.1,0,0,0,29.758-3.2Zm2.515-3.573V-12.06H27.828a9.521,9.521,0,0,0,1.9,3.344A10.854,10.854,0,0,0,32.272-6.769Zm-6.883-3.319a8.9,8.9,0,0,0,.533-1.973H22V-6.5A7.511,7.511,0,0,0,25.389-10.087Zm14.989,4.53-2.235.034a.268.268,0,0,1-.169-.034.292.292,0,0,1-.025-.152V-6.845a.288.288,0,0,1,.034-.178.316.316,0,0,1,.161-.025l2.235.034h3.759a7.064,7.064,0,0,0,.127-1.058H42.6l-2.354.034q-.144,0-.169-.034a.292.292,0,0,1-.025-.152v-1.1a.288.288,0,0,1,.034-.178.316.316,0,0,1,.161-.025l2.354.034h1.719v-1.024h-1.6l-2.286.034q-.135,0-.161-.042a.316.316,0,0,1-.025-.161v-1.075a.309.309,0,0,1,.034-.186.265.265,0,0,1,.152-.025l2.286.034H44.3q-.017-.423-.11-1.287,1.278.042,1.769.11.313.051.313.22a1.023,1.023,0,0,1-.1.364,1.607,1.607,0,0,0-.085.593h1.786l2.269-.034q.152,0,.178.042a.268.268,0,0,1,.034.169v1.075q0,.144-.042.178a.342.342,0,0,1-.169.025l-2.269-.034H46.085v1.024h1.871l2.337-.034q.152,0,.186.042a.316.316,0,0,1,.025.161v1.1q0,.135-.042.161a.342.342,0,0,1-.169.025l-2.337-.034h-1.9q-.008.119-.11,1.058H50.31l2.244-.034q.144,0,.178.042a.316.316,0,0,1,.025.161V-5.71a.254.254,0,0,1-.03.157.3.3,0,0,1-.174.03L50.31-5.558H46.686q1.88,2.252,6.562,2.794a3.739,3.739,0,0,0-.66,1.3q-.135.466-.347.466a1.951,1.951,0,0,1-.381-.034,9.818,9.818,0,0,1-6.612-3.8,4.6,4.6,0,0,1-.415.61,7.208,7.208,0,0,1-2.574,2.032,15.789,15.789,0,0,1-3.353,1.126q-.347.068-.4.068-.169,0-.33-.466a3.551,3.551,0,0,0-.66-1.185A13.678,13.678,0,0,0,41.47-3.754,5.021,5.021,0,0,0,43.486-5.3l.152-.262ZM50.123-15.1l2.294-.034q.135,0,.161.034a.316.316,0,0,1,.025.161l-.034.864v.728l.034,1.871q0,.135-.034.161a.292.292,0,0,1-.152.025H51q-.144,0-.169-.034a.292.292,0,0,1-.025-.152v-2.1H39.786v2.1q0,.135-.042.161a.342.342,0,0,1-.169.025h-1.4q-.144,0-.169-.034a.292.292,0,0,1-.025-.152l.034-1.871v-.593l-.034-1q0-.144.034-.169a.316.316,0,0,1,.161-.025l2.286.034h3.776v-.085a7.656,7.656,0,0,0-.135-1.651q1,.025,1.871.1.279.025.279.161a1.549,1.549,0,0,1-.1.347,3.848,3.848,0,0,0-.085,1.041v.085ZM68.042-9.774l2.091-.034q.195,0,.195.169l-.034,1.617v2.7l.034,1.609a.322.322,0,0,1-.03.178q-.03.034-.165.034l-2.091-.034H64.918l-2.1.034q-.119,0-.144-.034a.4.4,0,0,1-.025-.178l.034-1.609v-2.7l-.034-1.617a.15.15,0,0,1,.169-.169l2.1.034Zm.66,5.131v-.728H64.257v.728ZM64.257-6.311H68.7v-.7H64.257Zm0-2.354v.694H68.7v-.694ZM60.9-11.213a.523.523,0,0,1,.152-.042q.068,0,.127.144a17.059,17.059,0,0,1,1.075,3.141.735.735,0,0,1,.008.1q0,.135-.22.212l-.83.313a.77.77,0,0,1-.186.051q-.085,0-.11-.169l-.169-.77-.957.11v4.767l.034,2.269a.268.268,0,0,1-.034.169.292.292,0,0,1-.152.025H58.305q-.135,0-.161-.034a.316.316,0,0,1-.025-.161l.034-2.269V-7.971l-1.3.1a1.618,1.618,0,0,0-.652.144.624.624,0,0,1-.262.068q-.152,0-.212-.279a14.486,14.486,0,0,1-.2-1.473,9.339,9.339,0,0,0,.991.059q.135,0,.322-.008.33-.432.957-1.3A19.378,19.378,0,0,0,55.554-13.2a.263.263,0,0,1-.085-.161.689.689,0,0,1,.119-.22l.643-.855q.119-.144.178-.144t.135.093l.4.4a16.341,16.341,0,0,0,1-1.871,5.6,5.6,0,0,0,.313-.914,12.821,12.821,0,0,1,1.439.618q.229.127.229.279a.268.268,0,0,1-.152.229,1.022,1.022,0,0,0-.33.415q-.728,1.3-1.473,2.371l.762.906q.415-.66,1.126-1.922a8.154,8.154,0,0,0,.483-1.092q1.126.457,1.439.635.212.119.212.246a.335.335,0,0,1-.186.279,2.717,2.717,0,0,0-.542.677q-1.516,2.388-2.616,3.81l1.719-.1a10.478,10.478,0,0,0-.415-1.058.32.32,0,0,1-.034-.119q0-.11.2-.195Zm7.18-1.211h-.923v.728h1.8l2.328-.034q.169,0,.169.186v.94q0,.186-.169.186l-2.328-.034h-4.75l-2.32.034a.268.268,0,0,1-.169-.034.292.292,0,0,1-.025-.152v-.94q0-.135.034-.161a.316.316,0,0,1,.161-.025l2.32.034h1.3v-.728h-.643l-2.083.034q-.169,0-.169-.186v-.8a.309.309,0,0,1,.034-.186.221.221,0,0,1,.135-.025l2.083.034h.643v-.728h-.94l-2.2.034q-.135,0-.161-.042a.342.342,0,0,1-.025-.169v-.881a.309.309,0,0,1,.034-.186.292.292,0,0,1,.152-.025l2.2.034h.923a8.179,8.179,0,0,0-.11-1.312,16.885,16.885,0,0,1,1.7.119q.279.059.279.195a.69.69,0,0,1-.1.313,1.8,1.8,0,0,0-.11.686h1.355l2.218-.034q.135,0,.169.042a.342.342,0,0,1,.025.169v.881a.309.309,0,0,1-.034.186.316.316,0,0,1-.161.025l-2.218-.034H67.153v.728h.923l2.066-.034q.135,0,.161.042a.341.341,0,0,1,.025.169v.8q0,.135-.034.161a.292.292,0,0,1-.152.025ZM55.486-2.7A10.4,10.4,0,0,0,56.2-5.888q.042-.474.042-.8,0-.119-.008-.313a12.584,12.584,0,0,1,1.338.279q.3.093.3.2a.418.418,0,0,1-.085.262,2.153,2.153,0,0,0-.144.643,18.5,18.5,0,0,1-.6,3.192Q56.908-2,56.79-2a.893.893,0,0,1-.381-.212A2.844,2.844,0,0,0,55.486-2.7Zm8.9-.8q1.075.576,1.118.6.229.1.229.246,0,.169-.212.229a4.666,4.666,0,0,0-.635.33A11.453,11.453,0,0,1,62.09-.994a2.057,2.057,0,0,1-.415.085q-.186,0-.347-.279a3.847,3.847,0,0,0-.677-.881,12.861,12.861,0,0,0,3.006-.94A3.306,3.306,0,0,0,64.384-3.492Zm4.022.152A12.419,12.419,0,0,0,71.7-2.18a2.838,2.838,0,0,0-.627.787q-.237.432-.381.432a1.467,1.467,0,0,1-.4-.1,10.993,10.993,0,0,1-3.031-1.482q-.11-.068-.11-.119t.178-.178l.694-.466a.428.428,0,0,1,.2-.093A.455.455,0,0,1,68.406-3.34ZM61.142-6.963a.6.6,0,0,1,.161-.042q.085,0,.127.161a15.709,15.709,0,0,1,.728,3.023.587.587,0,0,1,.017.119q0,.11-.22.195l-.864.288a.742.742,0,0,1-.195.051q-.085,0-.1-.169a15.088,15.088,0,0,0-.627-3.124.493.493,0,0,1-.025-.119q0-.076.195-.135Zm23.837-8.72V-2.231H82.116l-3.26-6.934q-1.041-2.244-1.93-4.445h-.237q.119,2.235.119,4.86v6.519h-2.15V-15.684H78.18l2.794,5.96A44.41,44.41,0,0,1,82.76-5.109H83q-.169-2.743-.169-4.927v-5.647ZM92.6-11.959a3.914,3.914,0,0,1,3.26,1.5A5.452,5.452,0,0,1,96.9-7a5.262,5.262,0,0,1-1.338,3.835,3.986,3.986,0,0,1-2.98,1.177,3.908,3.908,0,0,1-3.268-1.5,5.461,5.461,0,0,1-1.033-3.463,5.26,5.26,0,0,1,1.346-3.835A3.993,3.993,0,0,1,92.6-11.959Zm0,1.575q-2.083,0-2.083,3.4,0,3.42,2.066,3.42,2.083,0,2.083-3.42Q94.667-10.384,92.6-10.384Zm9.655,5.757v2.4H99.776v-2.4Zm8.284-10.922V-3.915H113v1.685h-7.129V-3.915h2.6v-9.432a9.551,9.551,0,0,1-2.447,1.177l-.347-1.82a9.8,9.8,0,0,0,3.082-1.558Zm24.346,2.658a20.977,20.977,0,0,1-2.167,7.467,3.371,3.371,0,0,1-2.955,2,2.641,2.641,0,0,1-2.218-1.321,5.473,5.473,0,0,1-.847-3.133,6.217,6.217,0,0,1,1.956-4.513,7.639,7.639,0,0,1,5.639-2.218,6.644,6.644,0,0,1,5.08,1.93A5.734,5.734,0,0,1,140.9-8.6q0,4.707-5.342,6.316a.985.985,0,0,1-.254.042q-.254,0-.491-.356A3.625,3.625,0,0,0,133.6-3.687a8.523,8.523,0,0,0,3.895-1.786,4.444,4.444,0,0,0,1.338-3.4A3.955,3.955,0,0,0,137.62-11.8a3.646,3.646,0,0,0-2.667-1.092Zm-2.015.1a5.33,5.33,0,0,0-2.963,1.575A4.779,4.779,0,0,0,128.553-8a3.743,3.743,0,0,0,.432,1.922q.339.559.745.559.711,0,1.3-1.058a14.869,14.869,0,0,0,1.16-2.98A21.8,21.8,0,0,0,132.871-12.788Zm18.156,1.609a25.968,25.968,0,0,1,5.512,2.362q.229.119.229.3a.416.416,0,0,1-.034.152,9.855,9.855,0,0,1-.745,1.507q-.11.195-.229.195a.287.287,0,0,1-.195-.085,19.107,19.107,0,0,0-4.555-2.227v3.835q0,.948.068,3.4V-1.7q0,.212-.313.212-.389.025-.77.025t-.77-.025q-.33,0-.33-.262.068-1.676.068-3.412v-8.534a15.666,15.666,0,0,0-.169-2.565,12.222,12.222,0,0,1,2.167.279q.33.068.33.3a.9.9,0,0,1-.144.4,5.747,5.747,0,0,0-.119,1.626ZM154.15-14.8l.914-.635a.194.194,0,0,1,.11-.042.271.271,0,0,1,.152.076,7.311,7.311,0,0,1,1.642,1.854.216.216,0,0,1,.051.127.207.207,0,0,1-.093.152l-.737.533a.232.232,0,0,1-.135.059q-.076,0-.152-.11A9.036,9.036,0,0,0,154.15-14.8Zm1.592-1.143.872-.627a.194.194,0,0,1,.11-.042.239.239,0,0,1,.144.076,6.7,6.7,0,0,1,1.651,1.786.3.3,0,0,1,.051.144.214.214,0,0,1-.1.169l-.694.542a.253.253,0,0,1-.135.051.192.192,0,0,1-.161-.11A8.2,8.2,0,0,0,155.742-15.946ZM173.551-4.3h-6.722v1.024q0,.22-.085.279a.6.6,0,0,1-.3.059q-.339.017-.686.017t-.686-.017q-.364-.017-.364-.212v-.042q.051-2.7.051-3.446v-5.376q0-1.016-.034-1.744,0-.246.195-.246.914.051,3.1.051h4.123q2.447,0,3.26-.034.229,0,.229.262v.085l-.017,2.8v4.14q0,.94.085,3.3,0,.3-.33.3-.406.008-.8.008-.406,0-.8-.017-.161,0-.2-.051a.6.6,0,0,1-.025-.22Zm0-1.837v-5.977h-6.739v5.977Zm8-3.742a25.6,25.6,0,0,0,3.742.212h5.588q.821,0,2.117-.025,1.651-.025,1.871-.034h.085q.229,0,.229.246.025.4.025.821t-.025.813q0,.262-.246.262h-.068q-2.6-.034-3.869-.034h-6.24l-2.548.212a.381.381,0,0,1-.4-.364A16.49,16.49,0,0,1,181.546-9.876Zm18.706-3.192q.432-.525,1.211-1.355a.315.315,0,0,1,.246-.135.544.544,0,0,1,.229.085,15.623,15.623,0,0,1,3.31,2.464.417.417,0,0,1,.152.246.378.378,0,0,1-.1.22q-.567.754-1.075,1.3-.144.135-.212.135a.37.37,0,0,1-.22-.135A17.87,17.87,0,0,0,200.252-13.068Zm.381,8.653a12.731,12.731,0,0,0,2.345-.864q1.676-.872,2.785-1.6.974-.635,2.2-1.626a36.7,36.7,0,0,0,2.769-2.438,26.221,26.221,0,0,0,1.99-2.277,8.125,8.125,0,0,0,.483,2.023.911.911,0,0,1,.085.33.948.948,0,0,1-.279.525,26.72,26.72,0,0,1-3.988,3.674,39.953,39.953,0,0,1-5.232,3.4,6.789,6.789,0,0,0-1.16.8.5.5,0,0,1-.313.169.431.431,0,0,1-.3-.186A11.434,11.434,0,0,1,200.633-4.415Zm17.224-5.393q.051-.076.576-.94.229-.373.347-.533a.343.343,0,0,1,.262-.178.188.188,0,0,1,.059.008,12.414,12.414,0,0,1,3.336,1.7q.186.135.186.254a.523.523,0,0,1-.068.195,7.56,7.56,0,0,1-.762,1.321q-.144.169-.229.169a.373.373,0,0,1-.2-.1A15.576,15.576,0,0,0,217.857-9.808Zm2.1-4.072.914-1.389q.119-.195.246-.195a.463.463,0,0,1,.195.059,11.359,11.359,0,0,1,3.26,1.922.272.272,0,0,1,.135.229.417.417,0,0,1-.068.22,6.582,6.582,0,0,1-.889,1.3.186.186,0,0,1-.169.1.459.459,0,0,1-.262-.119A14.988,14.988,0,0,0,219.957-13.88ZM219.229-4a9.036,9.036,0,0,0,2.354-.847,31.857,31.857,0,0,0,4.75-3,30.563,30.563,0,0,0,5-4.843,10.867,10.867,0,0,0,.508,1.947.911.911,0,0,1,.085.33.578.578,0,0,1-.186.4,37.741,37.741,0,0,1-4.411,4,41.528,41.528,0,0,1-5.181,3.26,7.208,7.208,0,0,0-1.008.593.4.4,0,0,1-.279.135.446.446,0,0,1-.347-.212A10.442,10.442,0,0,1,219.229-4Zm26.165-3.725V-9.469h-4q-.457,0-1.312.051-.779.042-1.118.051-.229.025-.262-.4t-.085-1.422q.991.085,2.777.085H244.4q1.8,0,2.565-.034.262,0,.262.229v.051L247.2-8.589v4q0,.728.068,2.464,0,.2-.093.262a.662.662,0,0,1-.288.068q-.559.034-1.177.034a.412.412,0,0,1-.271-.059.319.319,0,0,1-.042-.195v-.525h-4.106q-1.058,0-2.4.085-.22,0-.246-.347a10.163,10.163,0,0,1-.085-1.439q.94.068,2.794.068h4.039V-6.091h-3.674q-.864,0-2.379.068-.271,0-.3-.381a10.529,10.529,0,0,1-.068-1.405q1.168.085,2.709.085Zm8.978-2.15a25.6,25.6,0,0,0,3.742.212H263.7q.821,0,2.117-.025,1.651-.025,1.871-.034h.085q.229,0,.229.246.025.4.025.821T268-7.844q0,.262-.246.262h-.068q-2.6-.034-3.869-.034h-6.24l-2.548.212a.381.381,0,0,1-.4-.364A16.482,16.482,0,0,1,254.372-9.876Zm27.223,3.708a7.066,7.066,0,0,0-.1-.779,15.6,15.6,0,0,1,1.82.119q.246.025.246.195a.65.65,0,0,1-.085.254.782.782,0,0,0-.076.212h1.439L287-6.2q.135,0,.161.034a.379.379,0,0,1,.017.152v1.151a.339.339,0,0,1-.025.174q-.025.03-.152.03l-2.167-.034H283.4v.246l.017,1.837a1.3,1.3,0,0,1-.643,1.278,5.735,5.735,0,0,1-2.337.313,1.11,1.11,0,0,1-.491-.059.721.721,0,0,1-.152-.339,4.028,4.028,0,0,0-.483-1.3q.838.068,1.575.068.711,0,.711-.55v-1.49h-7.527L271.9-4.66q-.127,0-.152-.042a.415.415,0,0,1-.017-.161V-6.015a.288.288,0,0,1,.025-.161A.242.242,0,0,1,271.9-6.2l2.167.034Zm.906-1.058h-6.1l-2.4.034a.309.309,0,0,1-.186-.034.292.292,0,0,1-.025-.152l.034-1.558V-11.23l-.034-1.609q0-.144.034-.169a.4.4,0,0,1,.178-.025l2.4.034h2.049v-.9h-4.115l-2.2.034q-.135,0-.161-.034a.291.291,0,0,1-.025-.152v-1.126a.309.309,0,0,1,.034-.186.292.292,0,0,1,.152-.025l2.2.034h4.115a13.01,13.01,0,0,0-.11-1.473q1,.025,1.786.119.229.025.229.178a2.716,2.716,0,0,1-.085.347,2.538,2.538,0,0,0-.085.83h4.4l2.218-.034q.135,0,.161.034a.4.4,0,0,1,.025.178v1.126q0,.135-.034.161a.292.292,0,0,1-.152.025l-2.218-.034h-4.4v.9h2.32l2.43-.034q.135,0,.161.034a.316.316,0,0,1,.025.161l-.034,1.558v2.345l.034,1.558a.254.254,0,0,1-.03.157.254.254,0,0,1-.157.03Zm.864-1.245V-9.512h-3.183V-8.47Zm0-3.26h-3.183v1.008h3.183Zm-7.848,3.26h2.929V-9.512h-2.929Zm0-2.252h2.929V-11.73h-2.929Zm1.211,6.257a11.4,11.4,0,0,1,1.609,1.9.265.265,0,0,1,.059.135q0,.076-.195.178l-1.211.643a.6.6,0,0,1-.212.093q-.059,0-.135-.127a10.512,10.512,0,0,0-1.549-2,.261.261,0,0,1-.085-.152q0-.068.178-.161l1.16-.55a.523.523,0,0,1,.195-.068A.339.339,0,0,1,276.727-4.466Zm23.76,1.4a16.423,16.423,0,0,0,1.685.085.759.759,0,0,0,.584-.169.776.776,0,0,0,.127-.508v-6.1h-2.65l-1.871.034a.309.309,0,0,1-.186-.034.316.316,0,0,1-.025-.161l.034-1.634v-2.785l-.034-1.626q0-.144.042-.169a.342.342,0,0,1,.169-.025l1.871.034h2.4l1.888-.034q.144,0,.169.034a.316.316,0,0,1,.025.161l-.034,2.269v6.968l.068,3.454a3.588,3.588,0,0,1-.11,1.033,1.255,1.255,0,0,1-.389.567,1.8,1.8,0,0,1-.889.373,11.735,11.735,0,0,1-1.77.093.9.9,0,0,1-.516-.085,1,1,0,0,1-.152-.474A4.844,4.844,0,0,0,300.487-3.069Zm-.584-8h2.98v-1.253H299.9Zm2.98-3.691H299.9v1.228h2.98Zm-7.815-1.372,1.676-.034q.144,0,.169.034a.316.316,0,0,1,.025.161l-.034,1.761v2.531l.034,1.753q0,.144-.034.169a.316.316,0,0,1-.161.025l-1.676-.034H292.41v4.927l.034,3.641q0,.135-.034.161a.292.292,0,0,1-.152.025h-1.516a.255.255,0,0,1-.157-.03.255.255,0,0,1-.03-.157l.034-3.641v-7.467l-.034-3.666q0-.144.034-.169a.316.316,0,0,1,.161-.025l2.007.034Zm.119,5.063v-1.253H292.41v1.253Zm0-3.691H292.41v1.228h2.777ZM310.5-1.536l-2.184.034q-.178,0-.178-.169V-3.06q0-.195.178-.195l2.184.034h.466V-7.014a9.065,9.065,0,0,0-.135-1.888q1.135.025,1.956.119.279.034.279.195a1.41,1.41,0,0,1-.119.364,4.257,4.257,0,0,0-.11,1.27v3.734h2.4v-6.6a10.413,10.413,0,0,0-.119-1.888q1.177.034,1.939.119.279.034.279.195a1.092,1.092,0,0,1-.1.381,3.869,3.869,0,0,0-.11,1.245v1.617h1.753l2.235-.034a.268.268,0,0,1,.169.034A.316.316,0,0,1,321.3-8v1.355q0,.127-.034.157a.277.277,0,0,1-.161.03l-2.235-.034h-1.753v3.268h4.123l2.167-.034q.144,0,.169.034a.316.316,0,0,1,.025.161v1.389q0,.169-.195.169l-2.167-.034Zm13.716-9.186a5.006,5.006,0,0,0-.779,1.329q-.169.432-.3.432a1.356,1.356,0,0,1-.4-.135,17.005,17.005,0,0,1-6.934-5.478,19.031,19.031,0,0,1-6.663,5.554,1.715,1.715,0,0,1-.415.169q-.119,0-.313-.415a4.515,4.515,0,0,0-.813-1.2,15.588,15.588,0,0,0,6.7-5.266,5.254,5.254,0,0,0,.635-1.287q.618.085,1.871.381.313.085.313.279a.312.312,0,0,1-.186.262l-.144.119A16.136,16.136,0,0,0,324.213-10.722Zm4.55,5.562-2.193.034a.288.288,0,0,1-.178-.034.292.292,0,0,1-.025-.152V-6.345a.288.288,0,0,1,.034-.178.342.342,0,0,1,.169-.025l2.193.034h4.276v-.931H330.6l-2.4.034q-.135,0-.152-.034a.414.414,0,0,1-.017-.161V-8.6a.338.338,0,0,1,.025-.178A.242.242,0,0,1,328.2-8.8l2.4.034h2.438v-.914h-3.26l-2.32.034q-.152,0-.178-.034t-.034-.135v-1.024q0-.144.042-.169a.342.342,0,0,1,.169-.025l2.32.034h1.058a11.466,11.466,0,0,0-.55-1.092.4.4,0,0,1-.059-.161q0-.076.178-.135l1.126-.313h-2.769l-2.193.034a.288.288,0,0,1-.178-.034.292.292,0,0,1-.025-.152v-1.075a.309.309,0,0,1,.034-.186.342.342,0,0,1,.169-.025l2.193.034h.119a8.784,8.784,0,0,0-.991-1.49.2.2,0,0,1-.059-.119q0-.076.2-.178l1-.466a.448.448,0,0,1,.161-.051q.076,0,.169.119a9.965,9.965,0,0,1,1.168,1.685.348.348,0,0,1,.051.127q0,.059-.195.169l-.415.2h1.609v-1.143a8.036,8.036,0,0,0-.1-1.507q1.05.034,1.676.1.212.025.212.152a1.165,1.165,0,0,1-.068.3,2.931,2.931,0,0,0-.1.957v1.143h1.405v-1.126a7.55,7.55,0,0,0-.11-1.524,15.417,15.417,0,0,1,1.668.119q.229.025.229.161a.842.842,0,0,1-.068.271,2.72,2.72,0,0,0-.11.957v1.143h1.075a12.641,12.641,0,0,0,.8-1.422,3.374,3.374,0,0,0,.3-.931,13.229,13.229,0,0,1,1.676.449q.229.076.229.22a.4.4,0,0,1-.169.3,1.722,1.722,0,0,0-.3.33q-.22.347-.711,1.058h.246l2.184-.034q.135,0,.161.042a.342.342,0,0,1,.025.169v1.075q0,.135-.034.161a.292.292,0,0,1-.152.025l-2.184-.034h-3.039q.72.135,1.372.313.229.059.229.212a.284.284,0,0,1-.195.254,1.7,1.7,0,0,0-.237.364l-.313.559H338.3l2.32-.034q.144,0,.169.034a.316.316,0,0,1,.025.161v1.024q0,.169-.195.169l-2.32-.034h-3.505v.914h2.76l2.388-.034q.144,0,.169.042a.316.316,0,0,1,.025.161v.991a.276.276,0,0,1-.03.165.276.276,0,0,1-.165.03l-2.388-.034h-2.76v.931h4.563l2.184-.034q.135,0,.161.042a.316.316,0,0,1,.025.161v1.033a.254.254,0,0,1-.03.157.254.254,0,0,1-.157.03l-2.184-.034h-3.09a16.226,16.226,0,0,0,5.774,2.252,4.839,4.839,0,0,0-.677,1.118q-.186.449-.381.449a2.353,2.353,0,0,1-.4-.085,14.63,14.63,0,0,1-5.825-3.107l.085,3.429a.268.268,0,0,1-.034.169.292.292,0,0,1-.152.025h-1.473q-.178,0-.178-.195,0-.085.017-.542.042-1.4.051-2.819a14.317,14.317,0,0,1-5.562,3.107,1.467,1.467,0,0,1-.4.1q-.169,0-.381-.449a3.848,3.848,0,0,0-.694-1.041,14.979,14.979,0,0,0,5.529-2.413Zm7.154-6.849a3.973,3.973,0,0,0,.195-.694h-4.419a.476.476,0,0,1,.135.135A11.543,11.543,0,0,1,332.607-11h2.845Q335.68-11.442,335.917-12.009Zm20.162-2.752L357-15.4a.159.159,0,0,1,.1-.042.242.242,0,0,1,.152.076,7.442,7.442,0,0,1,1.651,1.854.216.216,0,0,1,.051.127.2.2,0,0,1-.1.152l-.728.533a.232.232,0,0,1-.135.059.207.207,0,0,1-.161-.11A8.59,8.59,0,0,0,356.08-14.761Zm1.6-1.151.864-.627a.227.227,0,0,1,.11-.042.271.271,0,0,1,.152.076,6.894,6.894,0,0,1,1.642,1.795.253.253,0,0,1,.051.135.214.214,0,0,1-.1.169l-.694.542a.232.232,0,0,1-.135.059.207.207,0,0,1-.161-.11A8.447,8.447,0,0,0,357.68-15.912Zm-8.534,3.954q.262-.94.516-2.184a11.478,11.478,0,0,0,.178-1.922,15.548,15.548,0,0,1,2.074.567.342.342,0,0,1,.279.347.364.364,0,0,1-.119.262,2.28,2.28,0,0,0-.347.66q-.127.389-.33,1.1-.195.652-.3.982a11.7,11.7,0,0,1,1.389-.076q2.481,0,2.481,3.344a17.95,17.95,0,0,1-.279,3.141,9.04,9.04,0,0,1-.66,2.294,2.443,2.443,0,0,1-2.337,1.626,4.612,4.612,0,0,1-1.8-.262.476.476,0,0,1-.313-.483,5.671,5.671,0,0,0-.33-1.609,4.689,4.689,0,0,0,2,.449,1.018,1.018,0,0,0,.7-.22,2,2,0,0,0,.406-.7,12.253,12.253,0,0,0,.677-4.318,2.421,2.421,0,0,0-.237-1.3.879.879,0,0,0-.754-.3,11.307,11.307,0,0,0-1.456.119A50.944,50.944,0,0,1,347.1-2.281q-.093.212-.254.212a.422.422,0,0,1-.195-.059,4.934,4.934,0,0,1-1.2-.762.379.379,0,0,1-.135-.254.326.326,0,0,1,.068-.195,39.555,39.555,0,0,0,3.175-6.8q-.593.093-1.693.3a6.043,6.043,0,0,0-.957.279.638.638,0,0,1-.212.042.358.358,0,0,1-.347-.271,16.694,16.694,0,0,1-.533-1.786q.957,0,2.286-.119Q348.036-11.789,349.146-11.959Zm5.986-.135q.974-.66,1.4-.889a.273.273,0,0,1,.119-.034.327.327,0,0,1,.212.119,11.305,11.305,0,0,1,2.879,4.216.391.391,0,0,1,.042.152.26.26,0,0,1-.11.195,5.553,5.553,0,0,1-1.3.864.372.372,0,0,1-.178.051.217.217,0,0,1-.22-.186A11.767,11.767,0,0,0,355.131-12.094ZM362.4-5.422a.351.351,0,0,1,.22.1,13.2,13.2,0,0,1,3.454,3.175.491.491,0,0,1,.119.262.411.411,0,0,1-.169.279l-1.058.9q-.186.161-.246.161a.286.286,0,0,1-.237-.169A12.593,12.593,0,0,0,361.2-4.034q-.152-.1-.152-.169a.425.425,0,0,1,.119-.212l.974-.864A.377.377,0,0,1,362.4-5.422Zm25.276-3.844A15.8,15.8,0,0,1,385.228-6.6a17.809,17.809,0,0,1-3.277,2.43.787.787,0,0,1-.4.152.366.366,0,0,1-.3-.169,3.443,3.443,0,0,0-1.422-1.024,22.72,22.72,0,0,0,4.039-2.743,16.966,16.966,0,0,0,2.548-2.684l-3.031.017q-1.278,0-2.777.085-.212.025-.246-.3-.059-.3-.135-1.676,1.3.085,3.107.085h4.123l-.068-1.541a9.108,9.108,0,0,0-.279-2.049,15.9,15.9,0,0,1,2.184.195q.229.042.229.2a1.141,1.141,0,0,1-.068.262,3.6,3.6,0,0,0-.093.906q0,.271.017.686l.059,1.321h1.507q1.236,0,3.361-.085.262,0,.262.212.008.373.008.745t-.008.754a.217.217,0,0,1-.246.246q-2.125-.085-3.327-.085H389.6l.313,6.519q.008.1.008.195A1.774,1.774,0,0,1,389.08-2.3a4.626,4.626,0,0,1-2.4.61.5.5,0,0,1-.533-.3,3.98,3.98,0,0,0-1.219-1.541,14.587,14.587,0,0,0,2.447-.178.6.6,0,0,0,.406-.237,1.218,1.218,0,0,0,.1-.576q0-.119-.008-.212Zm13.533-6.384a14.194,14.194,0,0,1,2.159.364q.3.076.3.279a.765.765,0,0,1-.076.262A4.611,4.611,0,0,0,403.4-13.1V-9.6q0,.322.042,2.184,0,.347-.373.347h-1.4q-.322,0-.322-.254v-.042l.051-2.362v-3.4A12.946,12.946,0,0,0,401.208-15.65Zm.881,12.971a8.39,8.39,0,0,0,4.225-2.531,7.348,7.348,0,0,0,1.168-4.631v-3.277a15.267,15.267,0,0,0-.195-2.828,11.218,11.218,0,0,1,2.261.381.3.3,0,0,1,.237.3.554.554,0,0,1-.068.279,6.686,6.686,0,0,0-.152,1.888v3.226a13.486,13.486,0,0,1-.373,3.463A6.308,6.308,0,0,1,408.15-4.22a7.478,7.478,0,0,1-1.812,1.676,9.18,9.18,0,0,1-2,1.05,1.122,1.122,0,0,1-.364.085.583.583,0,0,1-.415-.212A5.851,5.851,0,0,0,402.088-2.679Zm14.65-6.951q.068-.11.576-.948.229-.373.347-.533a.343.343,0,0,1,.262-.178.188.188,0,0,1,.059.008,12.414,12.414,0,0,1,3.336,1.7q.186.135.186.254a.6.6,0,0,1-.068.195,7.563,7.563,0,0,1-.762,1.321q-.144.169-.224.169a.373.373,0,0,1-.207-.1A15.342,15.342,0,0,0,416.739-9.63Zm2.1-4.072.914-1.389q.119-.195.246-.195a.463.463,0,0,1,.195.059,11.516,11.516,0,0,1,3.26,1.922.266.266,0,0,1,.135.22.461.461,0,0,1-.068.229,7.108,7.108,0,0,1-.889,1.3.186.186,0,0,1-.169.1.459.459,0,0,1-.262-.119A14.84,14.84,0,0,0,418.838-13.7Zm-.728,9.88a8.877,8.877,0,0,0,2.354-.855,30.964,30.964,0,0,0,4.75-3,30.271,30.271,0,0,0,5-4.834,10.68,10.68,0,0,0,.508,1.939.912.912,0,0,1,.085.33.578.578,0,0,1-.186.4,36.85,36.85,0,0,1-4.411,4,41.524,41.524,0,0,1-5.181,3.26,8.111,8.111,0,0,0-1.008.593.4.4,0,0,1-.279.135.446.446,0,0,1-.347-.212A10.531,10.531,0,0,1,418.11-3.822Zm8.67-11.167.914-.643a.186.186,0,0,1,.1-.042.274.274,0,0,1,.161.076,7.51,7.51,0,0,1,1.643,1.854.247.247,0,0,1,.051.127.188.188,0,0,1-.1.152l-.728.542a.253.253,0,0,1-.135.051q-.076,0-.152-.11A9.11,9.11,0,0,0,426.78-14.99Zm1.592-1.143.872-.627a.2.2,0,0,1,.114-.042.238.238,0,0,1,.14.076,6.711,6.711,0,0,1,1.651,1.786.262.262,0,0,1,.051.144.214.214,0,0,1-.1.169l-.694.533a.232.232,0,0,1-.135.059.192.192,0,0,1-.161-.11A8.2,8.2,0,0,0,428.372-16.133Zm14.913,4.453h2.328q1.211,0,3.014-.034h.085q.229,0,.246.313.025.33.025.677t-.025.669q0,.22-.076.279a.45.45,0,0,1-.254.051l-2.912-.068h-2.464a16.748,16.748,0,0,1-.406,2.989,6.733,6.733,0,0,1-.77,1.744,9.109,9.109,0,0,1-3.691,3.42.757.757,0,0,1-.4.119A.515.515,0,0,1,437.6-1.7a5.379,5.379,0,0,0-1.456-.948,9.307,9.307,0,0,0,3.928-3.141,7.98,7.98,0,0,0,1.058-4H437.79q-.508,0-1.405.042l-1.092.051h-.051q-.212,0-.262-.33-.042-.3-.119-1.719,1.126.085,2.946.085h3.42q0-1.8-.017-2.565A8.394,8.394,0,0,0,441-15.98a12.791,12.791,0,0,1,2.3.246q.262.068.262.246a1.241,1.241,0,0,1-.119.381,2.694,2.694,0,0,0-.144,1.05Q443.3-12.67,443.284-11.679Zm17.9,5.757a18.106,18.106,0,0,0,2.464-1.617,16.744,16.744,0,0,0,3.031-2.946,4.905,4.905,0,0,0,.542,1.753,1.316,1.316,0,0,1,.1.3.689.689,0,0,1-.262.432A22.2,22.2,0,0,1,464.5-5.727a30.741,30.741,0,0,1-3.082,2.083q-.245.161-.5.364a.562.562,0,0,1-.356.135.787.787,0,0,1-.364-.135,4.878,4.878,0,0,1-1.041-1.058A.775.775,0,0,1,459-4.7a.586.586,0,0,1,.068-.262,4.494,4.494,0,0,0,.1-1.321v-5.427a16.689,16.689,0,0,0-.178-3.023,18.332,18.332,0,0,1,2.176.364q.313.076.313.3a1.1,1.1,0,0,1-.135.44,6.263,6.263,0,0,0-.161,1.922Zm-6.054-7.713a13.642,13.642,0,0,1,2.2.381q.279.076.279.313a.609.609,0,0,1-.051.22,2.642,2.642,0,0,0-.212,1.177,13.058,13.058,0,0,1-.94,5.1,8.814,8.814,0,0,1-2.464,3.26.813.813,0,0,1-.449.229.619.619,0,0,1-.33-.135,6.18,6.18,0,0,0-1.473-.728,8.918,8.918,0,0,0,2.879-3.454,8.561,8.561,0,0,0,.559-2.007,20.818,20.818,0,0,0,.169-2.9A5.733,5.733,0,0,0,455.132-13.635Zm23.591.745a20.977,20.977,0,0,1-2.167,7.467,3.371,3.371,0,0,1-2.955,2,2.641,2.641,0,0,1-2.218-1.321,5.473,5.473,0,0,1-.847-3.133,6.217,6.217,0,0,1,1.956-4.513,7.639,7.639,0,0,1,5.639-2.218,6.644,6.644,0,0,1,5.08,1.93A5.734,5.734,0,0,1,484.735-8.6q0,4.707-5.342,6.316a.985.985,0,0,1-.254.042q-.254,0-.491-.356a3.624,3.624,0,0,0-1.211-1.092,8.523,8.523,0,0,0,3.895-1.786,4.444,4.444,0,0,0,1.338-3.4,3.955,3.955,0,0,0-1.211-2.929,3.646,3.646,0,0,0-2.667-1.092Zm-2.015.1a5.33,5.33,0,0,0-2.963,1.575A4.779,4.779,0,0,0,472.391-8a3.743,3.743,0,0,0,.432,1.922q.339.559.745.559.711,0,1.3-1.058a14.867,14.867,0,0,0,1.16-2.98A21.8,21.8,0,0,0,476.708-12.788ZM4.936,13.1a25.967,25.967,0,0,1,5.512,2.362q.229.119.229.3a.416.416,0,0,1-.034.152A9.855,9.855,0,0,1,9.9,17.413q-.11.195-.229.195a.287.287,0,0,1-.195-.085A19.107,19.107,0,0,0,4.919,15.3v3.835q0,.948.068,3.4v.051q0,.212-.313.212-.389.025-.77.025t-.77-.025q-.33,0-.33-.262.068-1.676.068-3.412V10.581A15.665,15.665,0,0,0,2.7,8.016,12.222,12.222,0,0,1,4.869,8.3q.33.068.33.3a.9.9,0,0,1-.144.4,5.747,5.747,0,0,0-.119,1.626ZM8.061,9.472l.914-.635a.193.193,0,0,1,.11-.042.271.271,0,0,1,.152.076,7.311,7.311,0,0,1,1.642,1.854.216.216,0,0,1,.051.127.207.207,0,0,1-.093.152l-.737.533a.232.232,0,0,1-.135.059q-.076,0-.152-.11A9.036,9.036,0,0,0,8.061,9.472ZM9.652,8.329l.872-.627a.193.193,0,0,1,.11-.042.239.239,0,0,1,.144.076,6.7,6.7,0,0,1,1.651,1.786.3.3,0,0,1,.051.144.214.214,0,0,1-.1.169l-.694.542a.253.253,0,0,1-.135.051.192.192,0,0,1-.161-.11A8.2,8.2,0,0,0,9.652,8.329Zm17.808,11.65H20.738V21q0,.22-.085.279a.6.6,0,0,1-.3.059q-.339.017-.686.017t-.686-.017q-.364-.017-.364-.212v-.042q.051-2.7.051-3.446V12.266q0-1.016-.034-1.744,0-.246.195-.246.914.051,3.1.051h4.123q2.447,0,3.26-.034.229,0,.229.262v.085l-.017,2.8v4.14q0,.94.085,3.3,0,.3-.33.3-.406.008-.8.008-.406,0-.8-.017-.161,0-.2-.051a.6.6,0,0,1-.025-.22Zm0-1.837V12.164H20.721v5.977Zm8-3.742a25.6,25.6,0,0,0,3.742.212h5.588q.821,0,2.117-.025,1.651-.025,1.871-.034h.085q.229,0,.229.246.025.4.025.821t-.025.813q0,.262-.246.262h-.068q-2.6-.034-3.869-.034h-6.24l-2.548.212a.381.381,0,0,1-.4-.364A16.489,16.489,0,0,1,35.456,14.4Zm18.706-3.192q.432-.525,1.211-1.355a.315.315,0,0,1,.246-.135.545.545,0,0,1,.229.085,15.622,15.622,0,0,1,3.31,2.464.417.417,0,0,1,.152.246.378.378,0,0,1-.1.22q-.567.754-1.075,1.3-.144.135-.212.135a.37.37,0,0,1-.22-.135A17.87,17.87,0,0,0,54.162,11.207Zm.381,8.653A12.731,12.731,0,0,0,56.888,19q1.676-.872,2.785-1.6.974-.635,2.2-1.626a36.7,36.7,0,0,0,2.769-2.438,26.219,26.219,0,0,0,1.99-2.277,8.124,8.124,0,0,0,.483,2.023.911.911,0,0,1,.085.33.948.948,0,0,1-.279.525,26.72,26.72,0,0,1-3.988,3.674A39.954,39.954,0,0,1,57.7,21a6.789,6.789,0,0,0-1.16.8.5.5,0,0,1-.313.169.431.431,0,0,1-.3-.186A11.434,11.434,0,0,1,54.543,19.86Zm17.224-5.393q.051-.076.576-.94.229-.373.347-.533a.343.343,0,0,1,.262-.178.188.188,0,0,1,.059.008,12.414,12.414,0,0,1,3.336,1.7q.186.135.186.254a.523.523,0,0,1-.068.195A7.561,7.561,0,0,1,75.7,16.3q-.144.169-.229.169a.373.373,0,0,1-.2-.1A15.576,15.576,0,0,0,71.768,14.467Zm2.1-4.072.914-1.389q.119-.195.246-.195a.463.463,0,0,1,.195.059,11.359,11.359,0,0,1,3.26,1.922.272.272,0,0,1,.135.229.417.417,0,0,1-.068.22,6.583,6.583,0,0,1-.889,1.3.186.186,0,0,1-.169.1.459.459,0,0,1-.262-.119A14.988,14.988,0,0,0,73.867,10.395Zm-.728,9.88a9.036,9.036,0,0,0,2.354-.847,31.856,31.856,0,0,0,4.75-3,30.563,30.563,0,0,0,5-4.843,10.868,10.868,0,0,0,.508,1.947.911.911,0,0,1,.085.33.578.578,0,0,1-.186.4,37.74,37.74,0,0,1-4.411,4,41.527,41.527,0,0,1-5.181,3.26,7.209,7.209,0,0,0-1.008.593.4.4,0,0,1-.279.135.446.446,0,0,1-.347-.212A10.443,10.443,0,0,1,73.139,20.275ZM99.3,16.55V14.806h-4q-.457,0-1.312.051-.779.042-1.118.051-.229.025-.262-.4t-.085-1.422q.991.085,2.777.085h3.014q1.8,0,2.565-.034.262,0,.262.229v.051l-.034,2.269v4q0,.728.068,2.464,0,.2-.093.262a.662.662,0,0,1-.288.068q-.559.034-1.177.034a.412.412,0,0,1-.271-.059.319.319,0,0,1-.042-.195v-.525H95.2q-1.058,0-2.4.085-.22,0-.246-.347a10.163,10.163,0,0,1-.085-1.439q.94.068,2.794.068H99.3V18.184H95.629q-.864,0-2.379.068-.271,0-.3-.381a10.531,10.531,0,0,1-.068-1.405q1.168.085,2.709.085Zm8.978-2.15a25.6,25.6,0,0,0,3.742.212h5.588q.821,0,2.117-.025,1.651-.025,1.871-.034h.085q.229,0,.229.246.025.4.025.821t-.025.813q0,.262-.246.262H121.6q-2.6-.034-3.869-.034h-6.24l-2.548.212a.381.381,0,0,1-.4-.364A16.49,16.49,0,0,1,108.282,14.4Zm23.574-6.7a9.708,9.708,0,0,1,1.973.491.291.291,0,0,1,.212.3.306.306,0,0,1-.119.254,1.287,1.287,0,0,0-.3.415q-.034.085-.11.254-.152.364-.3.686a28.034,28.034,0,0,0,3.158-.542.735.735,0,0,1,.1-.008q.135,0,.178.186a6.016,6.016,0,0,1,.178,1.245v.051q0,.186-.3.229-2.023.3-4.064.525a22.465,22.465,0,0,1-1.3,1.922l.017.034a3.135,3.135,0,0,1,1.736-.533,1.91,1.91,0,0,1,2.108,1.871q1.778-.821,2.557-1.219a5.132,5.132,0,0,0,1.312-.931,9.539,9.539,0,0,1,1.219,1.524.727.727,0,0,1,.135.381q0,.195-.262.246a5.684,5.684,0,0,0-1.058.262q-2.548.9-3.725,1.38v2.794q0,.262-.33.313a8.333,8.333,0,0,1-1.228.085q-.229,0-.229-.279,0-1.49.017-2.108a5.329,5.329,0,0,0-1.685,1.211,1.672,1.672,0,0,0-.406,1.092q0,1.194,2.4,1.194a30.912,30.912,0,0,0,4.318-.347h.051q.169,0,.186.195a6.5,6.5,0,0,1,.161,1.422v.059q0,.262-.195.262a34.083,34.083,0,0,1-4.293.229q-4.352,0-4.352-2.862a3.362,3.362,0,0,1,.965-2.362,10,10,0,0,1,2.692-1.863,1.671,1.671,0,0,0-.262-.957.833.833,0,0,0-.677-.246h-.1a4.257,4.257,0,0,0-2.4,1.253q-.8.787-1.736,1.888-.127.152-.212.152-.068,0-.186-.119a7.456,7.456,0,0,1-.991-1.143.291.291,0,0,1-.068-.161.252.252,0,0,1,.119-.186,17.877,17.877,0,0,0,3.632-4.3q-1.211.051-2.777.051-.195,0-.246-.279-.059-.33-.169-1.431.83.034,1.744.034,1.1,0,2.244-.059a14.239,14.239,0,0,0,.516-1.49A4.415,4.415,0,0,0,131.856,7.7Zm19.849,8.7-2.345.034q-.186,0-.186-.169V15.085a.288.288,0,0,1,.034-.178.292.292,0,0,1,.152-.025l2.345.034h5.1l2.345-.034q.144,0,.178.042a.316.316,0,0,1,.025.161V16.27q0,.119-.034.144a.341.341,0,0,1-.169.025l-2.345-.034H154.93v1.651h1.541l1.769-.042a.268.268,0,0,1,.169.034.316.316,0,0,1,.025.161v1.126a.147.147,0,0,1-.195.195l-1.769-.042H154.93v1.829a20.115,20.115,0,0,0,2.515.169q1.262,0,2.32-.068a4.232,4.232,0,0,0-.313,1.109q-.051.44-.169.525a1,1,0,0,1-.466.068h-1.185a13.028,13.028,0,0,1-4.267-.635,5.176,5.176,0,0,1-2.421-1.863,8.67,8.67,0,0,1-1.651,2.354q-.246.246-.347.246-.135,0-.4-.313a3.479,3.479,0,0,0-.9-.8,7.066,7.066,0,0,0,2.506-4.2,6.157,6.157,0,0,0,.144-.991q.889.195,1.422.347.33.1.33.262a.492.492,0,0,1-.144.3,1.588,1.588,0,0,0-.169.449q-.034.119-.127.474-.068.246-.119.4a4.053,4.053,0,0,0,1.736,1.659v-4.4Zm4.039-8.339,2.108-.034q.144,0,.169.042a.341.341,0,0,1,.025.169l-.034,1.575v2.413l.034,1.575q0,.144-.034.169a.316.316,0,0,1-.161.025l-2.108-.034h-3.387L150.223,14q-.135,0-.161-.034a.316.316,0,0,1-.025-.161l.034-1.575V9.819l-.034-1.575a.309.309,0,0,1,.034-.186.292.292,0,0,1,.152-.025l2.134.034Zm.567,4.6V11.639h-4.555v1.024Zm0-3.26h-4.555v1.008h4.555ZM143.865,21.477a11.369,11.369,0,0,0,1.262.051.513.513,0,0,0,.449-.161.945.945,0,0,0,.093-.5V17.456q-.66.212-.745.237a2.03,2.03,0,0,0-.61.3.437.437,0,0,1-.279.1q-.152,0-.2-.212a11.535,11.535,0,0,1-.3-1.659,10.657,10.657,0,0,0,1.575-.33l.559-.152V12.494h-.229l-1.626.034a.268.268,0,0,1-.169-.034.316.316,0,0,1-.025-.161V11.072a.268.268,0,0,1,.034-.169.316.316,0,0,1,.161-.025l1.626.042h.229V10a20.373,20.373,0,0,0-.119-2.464q.923.025,1.77.127.279.025.279.186a1.227,1.227,0,0,1-.127.364,7.445,7.445,0,0,0-.1,1.753v.957l1.473-.042q.135,0,.161.034a.316.316,0,0,1,.025.161v1.262q0,.144-.034.169a.264.264,0,0,1-.152.025l-1.473-.034v2.684q1.067-.415,1.49-.618-.034.356-.068,1.126a.955.955,0,0,1-.085.525,1.774,1.774,0,0,1-.44.237l-.9.4v.83l.051,3.471q0,1.321-.559,1.71a3.523,3.523,0,0,1-1.9.381q-.161.008-.212.008a.373.373,0,0,1-.322-.11,1.915,1.915,0,0,1-.144-.415A5.023,5.023,0,0,0,143.865,21.477Zm24.827-3.488-2.4.034a.288.288,0,0,1-.178-.034.221.221,0,0,1-.025-.135V16.491q0-.135.034-.161a.342.342,0,0,1,.169-.025l2.379.034V12.892q-.847.008-1.49.025l-.33.008h-.1q-.195,0-.195-.169V11.419a.309.309,0,0,1,.034-.186.316.316,0,0,1,.161-.025l1.922.034v-.847a23.98,23.98,0,0,0-.119-2.642q1.016.034,1.837.127.262.025.262.2a1.316,1.316,0,0,1-.11.347,11.116,11.116,0,0,0-.085,1.93v.881h2.548v-.847a23.7,23.7,0,0,0-.119-2.642q1.007.034,1.837.127.279.025.279.186a.961.961,0,0,1-.11.347,9.371,9.371,0,0,0-.1,1.93v.9l2.117-.034q.152,0,.178.042a.341.341,0,0,1,.025.169v1.338q0,.119-.034.144a.341.341,0,0,1-.169.025l-2.117-.034v3.446h.381l2.4-.034q.135,0,.161.034a.292.292,0,0,1,.025.152v1.363q0,.169-.186.169l-2.4-.034Zm1.77-1.651h2.548V12.892h-2.548Zm-8.983-1.99a15.255,15.255,0,0,0,3.209-5.673,4.845,4.845,0,0,0,.262-1.211A13.236,13.236,0,0,1,166.643,8q.3.135.3.246a.43.43,0,0,1-.212.313,1.875,1.875,0,0,0-.339.694,24.321,24.321,0,0,1-1.008,2.354v8.949l.034,2.633a.268.268,0,0,1-.034.169.292.292,0,0,1-.152.025h-1.448q-.135,0-.161-.034a.316.316,0,0,1-.025-.161l.034-2.633V16.567q0-1.338.017-2.049-.6.838-1.075,1.422-.178.229-.3.229t-.186-.3A4.714,4.714,0,0,0,161.478,14.349Zm16.349,7.383a4.432,4.432,0,0,0-.864,1.092q-.195.364-.347.364a1.341,1.341,0,0,1-.415-.229,13.009,13.009,0,0,1-3.3-3.531.338.338,0,0,1-.051-.135q0-.068.212-.195l.991-.61a.519.519,0,0,1,.195-.085q.068,0,.152.135A10.812,10.812,0,0,0,177.827,21.731Zm-12.132.195a10.447,10.447,0,0,0,2.8-2.515,5.306,5.306,0,0,0,.593-1.109,12.874,12.874,0,0,1,1.524.813.349.349,0,0,1,.195.279q0,.144-.246.3a2.234,2.234,0,0,0-.432.483,12.523,12.523,0,0,1-2.709,2.769,1.115,1.115,0,0,1-.381.229q-.093,0-.347-.33A3.627,3.627,0,0,0,165.695,21.926Zm18.223-13.6a21.61,21.61,0,0,1,2.167.313q.415.1.415.33a2.1,2.1,0,0,1-.178.576,11.651,11.651,0,0,0-.237,2.108q-.262,4.013-.262,6.714a3.173,3.173,0,0,0,.322,1.795,1.689,1.689,0,0,0,1.27.356,6.721,6.721,0,0,0,3.039-.855,11.445,11.445,0,0,0,3.039-2.337,5.667,5.667,0,0,0,.4,1.651,1.309,1.309,0,0,1,.135.415.815.815,0,0,1-.347.542,9.755,9.755,0,0,1-3.37,2.023,9.351,9.351,0,0,1-3.2.576,3.191,3.191,0,0,1-2.565-.889A4.1,4.1,0,0,1,183.85,19q0-1.617.246-7.493.025-.881.025-1.2A8.182,8.182,0,0,0,183.918,8.329ZM205.452,18.2q-.068-1.626-.085-2.066-.728.017-1.312.017-1.219,0-2.261-.093-.254,0-.279-.288a8.745,8.745,0,0,1-.1-1.473,23.266,23.266,0,0,0,2.794.161q.542,0,1.109-.025l-.034-1.99q-1.033.034-1.744.034a21.657,21.657,0,0,1-2.4-.119.257.257,0,0,1-.3-.246q-.076-.635-.119-1.558a44.49,44.49,0,0,0,4.547.169q0-.5-.034-1.685a5.478,5.478,0,0,0-.212-1.16,10.241,10.241,0,0,1,2.184.313.317.317,0,0,1,.246.33.355.355,0,0,1-.051.186,2.139,2.139,0,0,0-.262.838q-.008.195-.017.525-.008.381-.017.584a31.316,31.316,0,0,0,3.793-.525.606.606,0,0,1,.127-.017q.152,0,.169.229a9.164,9.164,0,0,1,.085,1.262q0,.254-.186.279a37.082,37.082,0,0,1-4,.449L207.1,14.3q.787-.051,3.4-.449a.592.592,0,0,1,.144-.025q.119,0,.135.161.051.991.051,1.422,0,.22-.262.246-1.82.3-3.4.415.076,1.753.119,2.447a15.819,15.819,0,0,1,4.6,2.091.364.364,0,0,1,.152.246.718.718,0,0,1-.034.169,3.889,3.889,0,0,1-.762,1.287.255.255,0,0,1-.415.051,13.934,13.934,0,0,0-3.446-1.973,2.332,2.332,0,0,1-1,2.1,4.769,4.769,0,0,1-2.523.533,4.3,4.3,0,0,1-2.735-.762,2.029,2.029,0,0,1-.8-1.659,2.111,2.111,0,0,1,1.075-1.846,4.305,4.305,0,0,1,2.4-.618Q204.639,18.133,205.452,18.2Zm.034,1.642a6.973,6.973,0,0,0-1.609-.2q-1.871,0-1.871.914,0,.779,1.719.779a1.928,1.928,0,0,0,1.575-.516A1.8,1.8,0,0,0,205.486,19.843Zm18.833-9.186q-.008-.254-.017-.8-.008-.406-.017-.643a7.277,7.277,0,0,0-.212-1.27,15.128,15.128,0,0,1,2.032.246q.483.085.483.33a.911.911,0,0,1-.152.4,1.663,1.663,0,0,0-.144.5q-.008.11-.034,1.109,2.328-.085,5.325-.085.161,0,.2.051a.391.391,0,0,1,.051.212q.017.339.017.66t-.017.66q0,.229-.22.229h-.068q-1.575-.051-3.344-.051-1.067,0-1.947.008,0,2.167.017,3.226a4.936,4.936,0,0,1,.262,1.719,6.347,6.347,0,0,1-3.09,5.6,1.765,1.765,0,0,1-.677.33.972.972,0,0,1-.516-.262,3.674,3.674,0,0,0-1.321-.686,6.931,6.931,0,0,0,2.54-1.837,4.442,4.442,0,0,0,1.016-1.981,1.825,1.825,0,0,1-1.626.694,2.234,2.234,0,0,1-1.8-.8,2.782,2.782,0,0,1-.61-1.863,2.459,2.459,0,0,1,.881-1.99,2.617,2.617,0,0,1,1.736-.61,2,2,0,0,1,1.321.347l-.017-1.769q-3.759.212-6,.525a2.929,2.929,0,0,0-.516.127,1.279,1.279,0,0,1-.3.076.3.3,0,0,1-.3-.246,11.8,11.8,0,0,1-.432-1.744q.262.025.55.025.262,0,1.566-.093Q220.339,10.886,224.318,10.657Zm-1.109,4.453a1.147,1.147,0,0,0-.821.313,1.07,1.07,0,0,0-.33.813,1.183,1.183,0,0,0,.364.923,1.082,1.082,0,0,0,.745.262,1.174,1.174,0,0,0,.881-.339,1.2,1.2,0,0,0,.3-.864,1.05,1.05,0,0,0-.356-.855A1.168,1.168,0,0,0,223.209,15.111Z" transform="translate(100 462.681)" fill="#fff"/>
      <path id="Path_11376" data-name="Path 11376" d="M500.084-37.494q2.676-.123,8-.859,19.961-2.922,30.2-4.272a2.13,2.13,0,0,1,.295-.025q.687,0,.761.565a23.666,23.666,0,0,1,.565,4.42q0,.761-.958.761a25.167,25.167,0,0,0-6.138,1.1,20.381,20.381,0,0,0-10.018,6.777A13.021,13.021,0,0,0,520-20.97q0,9.723,13.381,10.558,1.1,0,1.1.761a15.6,15.6,0,0,1-.565,4.321q-.2,1.056-.933,1.056a20.414,20.414,0,0,1-13.308-4.37,13.754,13.754,0,0,1-5.254-11.172,16.6,16.6,0,0,1,2.873-9.649,24.383,24.383,0,0,1,6.777-6.286v-.1q-9.06,1.719-16.892,3.339-2.6.614-3.167.81a5.967,5.967,0,0,1-1.1.393,1.035,1.035,0,0,1-.958-.761A38.283,38.283,0,0,1,500.084-37.494Zm31.28,8.937,2.652-1.866a.574.574,0,0,1,.331-.123.785.785,0,0,1,.43.221,21.062,21.062,0,0,1,4.763,5.4.606.606,0,0,1,.147.344.552.552,0,0,1-.27.442l-2.112,1.571a.776.776,0,0,1-.43.147q-.209,0-.43-.319A25.686,25.686,0,0,0,531.364-28.557Zm4.616-3.315,2.529-1.792a.594.594,0,0,1,.319-.147.693.693,0,0,1,.417.221,19.46,19.46,0,0,1,4.788,5.181.881.881,0,0,1,.147.442.605.605,0,0,1-.295.467l-2.013,1.571a.673.673,0,0,1-.393.172.6.6,0,0,1-.467-.319A24.222,24.222,0,0,0,535.98-31.872Zm15.959,17.04a1.018,1.018,0,0,1,.638.295A38.278,38.278,0,0,1,562.6-5.33a1.424,1.424,0,0,1,.344.761,1.193,1.193,0,0,1-.491.81l-3.069,2.6q-.54.467-.712.467a.829.829,0,0,1-.687-.491,36.517,36.517,0,0,0-9.526-9.625q-.442-.295-.442-.491a1.232,1.232,0,0,1,.344-.614l2.824-2.5A1.092,1.092,0,0,1,551.939-14.832ZM18.087,31.473a30.019,30.019,0,0,1,5.893,1.154q.908.319.908.908a1.29,1.29,0,0,1-.246.81,3.93,3.93,0,0,0-.712,1.817q-.074.393-.221,1.35-.1.712-.2,1.154A103.286,103.286,0,0,0,36.6,36.555a1.443,1.443,0,0,1,.344-.049q.393,0,.516.565a15.829,15.829,0,0,1,.491,3.413q0,.81-1.056,1.007A127.909,127.909,0,0,1,22.629,43.6q-.319,3.094-.368,5.082a25.673,25.673,0,0,1,7.71-1.1,12.084,12.084,0,0,0,.835-3.683,17.159,17.159,0,0,1,4.469,1.866q.908.589.908,1.1a.931.931,0,0,1-.295.614,4.119,4.119,0,0,0-.638.982,14.145,14.145,0,0,1,7.906,4.861,11.731,11.731,0,0,1,2.382,7.415,12.112,12.112,0,0,1-4.493,9.477,23.4,23.4,0,0,1-9.477,4.69,3.2,3.2,0,0,1-.835.147q-.835,0-1.375-1.08a12.49,12.49,0,0,0-2.971-3.118,32.024,32.024,0,0,0,5.647-1.768,19.737,19.737,0,0,0,3.683-1.915,8.934,8.934,0,0,0,4.027-7.538,6.814,6.814,0,0,0-2.087-5.082,8.975,8.975,0,0,0-4.125-2.21,54.673,54.673,0,0,1-9.5,13.16,24.1,24.1,0,0,0,.884,2.283,1.187,1.187,0,0,1,.147.516q0,.344-.54.737a14.642,14.642,0,0,1-3.02,1.743,1.165,1.165,0,0,1-.491.172q-.246,0-.516-.417a10.115,10.115,0,0,1-.835-1.964q-5.254,3.634-8.765,3.634A5.134,5.134,0,0,1,6.646,70.34,6.757,6.757,0,0,1,5.32,65.97q0-4.911,4-9.625a24.392,24.392,0,0,1,7.759-6.015q.074-2.7.246-6.286-1.841.074-3.364.074l-1.792-.025a24.21,24.21,0,0,1-2.873-.1q-.835-.074-.908-1.154a19.151,19.151,0,0,1-.147-1.915q-.074-1.473-.1-1.915a46.127,46.127,0,0,0,5.3.27q.491,0,4.444-.049a53.091,53.091,0,0,0,.417-5.5A11.49,11.49,0,0,0,18.087,31.473Zm4.542,29.071a41.361,41.361,0,0,0,5.819-8.692,22.05,22.05,0,0,0-6.433,1.154A53.391,53.391,0,0,0,22.629,60.543ZM17.08,55.265a18.532,18.532,0,0,0-4.911,4.96,8.75,8.75,0,0,0-1.571,4.69,1.942,1.942,0,0,0,.565,1.473,1.5,1.5,0,0,0,1.1.442q2.112,0,5.819-2.922A72.123,72.123,0,0,1,17.08,55.265Zm62.953,5.868q-.344-3.707-.442-8.643a19.523,19.523,0,0,0-.417-3.56,30.629,30.629,0,0,1,5.475.958.761.761,0,0,1,.712.786,5.725,5.725,0,0,1-.295,1.056,4.871,4.871,0,0,0-.221,1.5q0,.172.025.565a75.211,75.211,0,0,0,.54,8.544,44.533,44.533,0,0,1,9.06,4.69q.442.319.442.589a1.138,1.138,0,0,1-.147.467,35.47,35.47,0,0,1-2.308,4.076q-.221.344-.466.344a.8.8,0,0,1-.491-.295,40.743,40.743,0,0,0-6.138-4.223,6.473,6.473,0,0,1-2.848,5.794,11.794,11.794,0,0,1-6.482,1.547,10.377,10.377,0,0,1-7.022-2.21,6.2,6.2,0,0,1-2.234-4.935,6.428,6.428,0,0,1,2.848-5.549,10.837,10.837,0,0,1,6.457-1.792A25.967,25.967,0,0,1,80.034,61.133Zm.1,4.788a12.807,12.807,0,0,0-4.1-.761,5.861,5.861,0,0,0-3.339.835,2.427,2.427,0,0,0-1.129,2.087q0,2.406,4.272,2.406a4.687,4.687,0,0,0,3.339-1.129,3.21,3.21,0,0,0,1.007-2.431A7.02,7.02,0,0,0,80.132,65.92ZM71.956,40.115a51.219,51.219,0,0,0,6.236-1.08,1.116,1.116,0,0,1,.368-.1q.295,0,.368.491A23.261,23.261,0,0,1,79.4,43.5q0,.516-.614.589-2.6.54-8.3,1.35a144.067,144.067,0,0,1-9.8,21.582q-.295.491-.565.491a1.462,1.462,0,0,1-.589-.246,20.507,20.507,0,0,1-3.486-2.578.73.73,0,0,1-.344-.54,1.019,1.019,0,0,1,.246-.614,107.463,107.463,0,0,0,8.716-17.531q-1.915.1-5.033.1-1.522,0-2.774-.049-.565,0-.712-.81a28.441,28.441,0,0,1-.491-4.272q2.725.2,4.665.2,2.922,0,5.794-.246.663-2.333,1.3-5.623a23.143,23.143,0,0,0,.319-4.076A45.476,45.476,0,0,1,73.6,32.283q.81.147.81.737a1.337,1.337,0,0,1-.442.958,6.417,6.417,0,0,0-.81,1.866q-.123.417-.614,2.185Q72.2,39.305,71.956,40.115ZM83.1,44.9q2.062-3.658,2.259-3.928.295-.467.614-.467a1.361,1.361,0,0,1,.442.1,35.308,35.308,0,0,1,9.87,4.739q.442.295.442.54a1.27,1.27,0,0,1-.2.614,28.219,28.219,0,0,1-2.112,3.732q-.221.344-.466.344a.831.831,0,0,1-.442-.2A43.04,43.04,0,0,0,83.1,44.9Zm39.825-3.978q3.118-.565,7.145-1.694a.86.86,0,0,1,.27-.049q.467,0,.516.54.295,2.013.368,3.609v.221q0,.565-.761.737a80.021,80.021,0,0,1-8.741,1.915q-4.984,16.254-9.207,27.2Q112.3,74,111.9,74a2.081,2.081,0,0,1-.491-.1,32.717,32.717,0,0,1-4.027-1.866.806.806,0,0,1-.466-.712.927.927,0,0,1,.049-.295,199.735,199.735,0,0,0,8.716-23.816,86.424,86.424,0,0,1-8.79.565.92.92,0,0,1-1.056-.81q-.27-1.326-.712-4.591a27.057,27.057,0,0,0,3.732.172,66.283,66.283,0,0,0,8.127-.516q.589-2.308,1.277-6.286a35.656,35.656,0,0,0,.295-4.616,31.474,31.474,0,0,1,6.31,1.4.782.782,0,0,1,.565.81,1.43,1.43,0,0,1-.246.81,15.029,15.029,0,0,0-1.056,1.989q-.27.982-.687,2.774Q123.1,40.336,122.928,40.926Zm.908,23.08a19.194,19.194,0,0,1,4.272-.761.7.7,0,0,1,.761.712,4.483,4.483,0,0,0,2.455,3.879,12.192,12.192,0,0,0,5.23.859A73.649,73.649,0,0,0,145,67.983a.721.721,0,0,1,.172-.025q.393,0,.442.466a30.651,30.651,0,0,1,.393,4.395,2,2,0,0,1,.025.246q0,.491-.81.54a46.763,46.763,0,0,1-6.85.565,30.058,30.058,0,0,1-8.152-.859,9.384,9.384,0,0,1-4.125-2.406Q124.008,68.793,123.836,64.005Zm3.928-9.5q-.221-3.56-.221-4.567a.992.992,0,0,1,.2-.737,1.417,1.417,0,0,1,.712-.27,49.355,49.355,0,0,1,9.8-1.154,35.786,35.786,0,0,1,5.893.491,1.594,1.594,0,0,1,.712.221.709.709,0,0,1,.147.54q.074,1.031.074,2.308,0,.761-.025,1.694,0,.958-.589.958a1.523,1.523,0,0,1-.368-.049,32.494,32.494,0,0,0-6.236-.589A52.342,52.342,0,0,0,127.765,54.5ZM179.5,41.54Q177.607,55.51,173.212,63.2q-3.315,5.794-8.569,5.794-3.806,0-6.433-3.83a15.871,15.871,0,0,1-2.455-9.085,18.03,18.03,0,0,1,5.672-13.087q6.433-6.433,16.352-6.433,9.453,0,14.732,5.6a16.627,16.627,0,0,1,4.42,11.834q0,13.651-15.493,18.316a2.855,2.855,0,0,1-.737.123q-.737,0-1.424-1.031a10.512,10.512,0,0,0-3.511-3.167q7.759-1.841,11.294-5.181a12.889,12.889,0,0,0,3.879-9.846,11.468,11.468,0,0,0-3.511-8.5,10.574,10.574,0,0,0-7.734-3.167Zm-5.844.295A15.456,15.456,0,0,0,165.06,46.4a13.86,13.86,0,0,0-3.928,9.306,10.853,10.853,0,0,0,1.252,5.573q.982,1.62,2.161,1.62,2.062,0,3.781-3.069a43.124,43.124,0,0,0,3.364-8.643A63.206,63.206,0,0,0,173.654,41.834ZM232.31,46.3V62.95q0,4.42.147,10.459v.147q0,.712-.761.712-1.228.074-2.5.074t-2.5-.074q-.712,0-.712-.638v-.172q.025-1.179.123-5.573.074-2.873.074-4.739V51.434a79.293,79.293,0,0,1-13.823,9.649,1.507,1.507,0,0,1-.761.2,1.536,1.536,0,0,1-1.056-.491,18.561,18.561,0,0,0-4.321-2.971,88.079,88.079,0,0,0,15.837-10.312A79.568,79.568,0,0,0,232.752,37a17.585,17.585,0,0,0,3.192-5.181,43.094,43.094,0,0,1,5.573,3.536.848.848,0,0,1,.393.737,1.287,1.287,0,0,1-.712,1.1,19.229,19.229,0,0,0-3,2.774A85.721,85.721,0,0,1,232.31,46.3Zm19.961,10.312a26.812,26.812,0,0,0,5.132-4.272q3.806-3.879,7.292-7.587a11.691,11.691,0,0,1,2.553-2.21,4.051,4.051,0,0,1,1.964-.467,4.888,4.888,0,0,1,2.21.467,10.475,10.475,0,0,1,2.161,1.6,158.585,158.585,0,0,0,22.539,16.352.857.857,0,0,1,.614.786,1.123,1.123,0,0,1-.172.565,27.5,27.5,0,0,1-2.6,4.37q-.393.565-.761.565a.915.915,0,0,1-.54-.2A234.146,234.146,0,0,1,270.367,49a1.269,1.269,0,0,0-.786-.344,1.152,1.152,0,0,0-.81.393q-1.449,1.5-4,4.395-2.848,3.241-4.2,4.739a17.635,17.635,0,0,0-2.013,2.553q-.417.663-.908.663a1.072,1.072,0,0,1-.712-.344Q255.169,59.586,252.272,56.615Zm27.45-16.18,2.676-1.866a.461.461,0,0,1,.295-.123.7.7,0,0,1,.442.221,21.581,21.581,0,0,1,4.788,5.377.627.627,0,0,1,.147.368.594.594,0,0,1-.295.442L285.664,46.4a.673.673,0,0,1-.393.172.6.6,0,0,1-.466-.319A24.91,24.91,0,0,0,279.722,40.435Zm4.64-3.339,2.5-1.792a.657.657,0,0,1,.319-.123.786.786,0,0,1,.442.221,19.637,19.637,0,0,1,4.763,5.181.761.761,0,0,1,.147.417.67.67,0,0,1-.295.491l-2.013,1.547a.673.673,0,0,1-.393.172.6.6,0,0,1-.467-.319A23.775,23.775,0,0,0,284.362,37.1Zm21.852,3.928q1.252-1.522,3.511-3.928a.914.914,0,0,1,.712-.393,1.579,1.579,0,0,1,.663.246,45.3,45.3,0,0,1,9.6,7.145,1.209,1.209,0,0,1,.442.712,1.1,1.1,0,0,1-.295.638q-1.645,2.185-3.118,3.781-.417.393-.614.393a1.074,1.074,0,0,1-.638-.393A51.824,51.824,0,0,0,306.214,41.024Zm1.1,25.093a36.921,36.921,0,0,0,6.8-2.5q4.861-2.529,8.078-4.64,2.824-1.841,6.384-4.714a106.436,106.436,0,0,0,8.029-7.071,76.037,76.037,0,0,0,5.77-6.6,23.562,23.562,0,0,0,1.4,5.868,2.643,2.643,0,0,1,.246.958,2.75,2.75,0,0,1-.81,1.522,77.487,77.487,0,0,1-11.564,10.656,115.863,115.863,0,0,1-15.174,9.846,19.689,19.689,0,0,0-3.364,2.333,1.437,1.437,0,0,1-.908.491,1.251,1.251,0,0,1-.859-.54A33.159,33.159,0,0,1,307.319,66.117ZM373.244,46.5a75.3,75.3,0,0,1,15.984,6.85q.663.344.663.859a1.206,1.206,0,0,1-.1.442,28.581,28.581,0,0,1-2.161,4.37q-.319.565-.663.565a.833.833,0,0,1-.565-.246,55.41,55.41,0,0,0-13.209-6.457V64.005q0,2.75.2,9.846V74q0,.614-.908.614-1.129.074-2.234.074-1.129,0-2.234-.074-.958,0-.958-.761.2-4.861.2-9.895V39.207a45.431,45.431,0,0,0-.491-7.44,35.443,35.443,0,0,1,6.286.81q.958.2.958.859a2.6,2.6,0,0,1-.417,1.154q-.344.663-.344,4.714ZM420.9,30.859a28.155,28.155,0,0,1,5.721,1.424.844.844,0,0,1,.614.859.886.886,0,0,1-.344.737,3.735,3.735,0,0,0-.859,1.2q-.1.246-.319.737-.442,1.056-.859,1.989a81.3,81.3,0,0,0,9.158-1.571,2.13,2.13,0,0,1,.295-.025q.393,0,.516.54a17.448,17.448,0,0,1,.516,3.609v.147q0,.54-.859.663-5.868.859-11.785,1.522a65.154,65.154,0,0,1-3.757,5.573l.049.1a9.091,9.091,0,0,1,5.033-1.547q5.426,0,6.114,5.426,5.156-2.382,7.415-3.536a14.882,14.882,0,0,0,3.806-2.7,27.661,27.661,0,0,1,3.536,4.42,2.109,2.109,0,0,1,.393,1.1q0,.565-.761.712a16.484,16.484,0,0,0-3.069.761q-7.39,2.6-10.8,4v8.1q0,.761-.958.908a24.165,24.165,0,0,1-3.56.246q-.663,0-.663-.81,0-4.321.049-6.114a15.455,15.455,0,0,0-4.886,3.511,4.847,4.847,0,0,0-1.179,3.167q0,3.462,6.973,3.462a89.646,89.646,0,0,0,12.522-1.007h.147q.491,0,.54.565a18.866,18.866,0,0,1,.466,4.125v.172q0,.761-.565.761a98.84,98.84,0,0,1-12.448.663q-12.62,0-12.62-8.3a9.751,9.751,0,0,1,2.8-6.85,29,29,0,0,1,7.808-5.4,4.846,4.846,0,0,0-.761-2.774,2.416,2.416,0,0,0-1.964-.712h-.295q-2.922.123-6.948,3.634-2.333,2.283-5.033,5.475-.368.442-.614.442-.2,0-.54-.344a21.623,21.623,0,0,1-2.873-3.315.843.843,0,0,1-.2-.467.73.73,0,0,1,.344-.54,51.843,51.843,0,0,0,10.533-12.473q-3.511.147-8.053.147-.565,0-.712-.81-.172-.958-.491-4.149,2.406.1,5.058.1,3.192,0,6.507-.172a41.282,41.282,0,0,0,1.5-4.321A12.806,12.806,0,0,0,420.9,30.859ZM30.609,148.809q1.768.147,3.511.147.982,0,1.866-.049a1.49,1.49,0,0,0,1.154-.442,1.92,1.92,0,0,0,.246-1.129v-9.944H27.491l-6.678.1a.777.777,0,0,1-.491-.1.846.846,0,0,1-.074-.442v-2.578q-.1.074-.958.516-.663.368-1.841.933-1.424.687-1.67.81v8.4l.1,8.864q0,.393-.123.467a.917.917,0,0,1-.467.074H11.237q-.393,0-.467-.1a.846.846,0,0,1-.074-.442l.1-8.814v-6.138l-3.511,1.522a4.851,4.851,0,0,0-1.67,1.007,1.093,1.093,0,0,1-.859.442.792.792,0,0,1-.737-.565,38.844,38.844,0,0,1-1.67-4.861,27.629,27.629,0,0,0,4.665-1.35q1.866-.589,3.781-1.35V123.471H7.824a57.212,57.212,0,0,1-1.154,5.794q-.295,1.2-.614,1.2a3.945,3.945,0,0,1-1.154-.516,18.185,18.185,0,0,0-2.75-1.007,54.522,54.522,0,0,0,2.112-13.16q.025-.663.025-1.277,0-1.031-.074-1.94,2.48.295,4.051.614.81.2.81.589a1.922,1.922,0,0,1-.246.81,6.158,6.158,0,0,0-.246,1.719l-.2,2.455h2.406v-2.824a65.925,65.925,0,0,0-.393-7.587q2.725.074,5.181.344.81.1.81.516a3.949,3.949,0,0,1-.319,1.056,26.28,26.28,0,0,0-.295,5.573v2.922l4.076-.1a.835.835,0,0,1,.516.1.641.641,0,0,1,.074.393v3.879q0,.417-.147.491l6.7.1h3.658v-5.009H28.6l-6.236.1q-.442,0-.516-.1a.846.846,0,0,1-.074-.442v-3.585q0-.393.1-.467a.99.99,0,0,1,.491-.074l6.236.1h2.062a34.958,34.958,0,0,0-.442-5.745q2.259.074,5.279.417.786.074.786.491a3.17,3.17,0,0,1-.295,1.007,13.614,13.614,0,0,0-.344,3.83h3.511l6.335-.1q.393,0,.467.1a.846.846,0,0,1,.074.442v3.585q0,.393-.1.467a.767.767,0,0,1-.442.074l-6.335-.1H35.642v5.009h5.524l6.678-.1q.565,0,.565.491V127.6q0,.393-.1.467a.916.916,0,0,1-.467.074l-6.678-.1H27l-6.8.1q-.393,0-.467-.1a.846.846,0,0,1-.074-.442v-3.585a.668.668,0,0,1,.1-.442l-1.3-.025q-1.252-.049-2.676-.074v8.2q3.928-1.915,4.616-2.283,0,1.67.147,3.339h.27l6.678.1h9.895a20.957,20.957,0,0,0-.344-4.027,40.249,40.249,0,0,1,5.132.54q.81.172.81.614a1.842,1.842,0,0,1-.295.859,4.361,4.361,0,0,0-.319,2.013l5.377-.1a.777.777,0,0,1,.491.1.846.846,0,0,1,.074.442v3.683a.738.738,0,0,1-.086.454.8.8,0,0,1-.479.086q-.074,0-.687-.025-2.038-.049-4.69-.074v5.132l.1,6.236q0,3.045-1.719,4.272-1.62,1.1-6.678,1.1a2.574,2.574,0,0,1-1.424-.221,3.368,3.368,0,0,1-.467-1.326A9.956,9.956,0,0,0,30.609,148.809Zm-4.567-9.8a1.392,1.392,0,0,1,.589-.221.739.739,0,0,1,.467.27,39.971,39.971,0,0,1,4.861,5.844.828.828,0,0,1,.2.417q0,.172-.491.54l-3.02,2.161a1.519,1.519,0,0,1-.589.295q-.2,0-.368-.393a32.455,32.455,0,0,0-4.616-6.286.894.894,0,0,1-.221-.442q0-.172.467-.466Zm37,9.06q3.585.442,4.837.442A1.978,1.978,0,0,0,69.6,147.8a5.526,5.526,0,0,0,.712-2.308,58.5,58.5,0,0,0,.589-8.888H64.32a30.96,30.96,0,0,1-7.464,15.787q-.663.761-.958.761-.27,0-.859-.958a12.081,12.081,0,0,0-2.7-3.069,21.475,21.475,0,0,0,6.187-9.527,47.578,47.578,0,0,0,1.645-12.645q-2.136.025-3.83.074l-1.129.025a.9.9,0,0,1-.54-.1.916.916,0,0,1-.074-.467l.1-4.469v-6.506l-.1-4.444q0-.417.123-.491a.99.99,0,0,1,.491-.074l5.868.1h8.373l5.868-.1q.417,0,.491.1a.916.916,0,0,1,.074.467l-.1,4.444v6.506l.1,4.469q0,.417-.1.491a.917.917,0,0,1-.466.074l-5.868-.1H65.2q-.074,2.725-.295,5.132h6.7l3.855-.1q.663,0,.663.614-.147,2.627-.147,4.444a55.958,55.958,0,0,1-.958,11.466Q73.8,153.5,68.641,153.5q-1.522,0-2.48-.1a2.542,2.542,0,0,1-1.3-.344,2.832,2.832,0,0,1-.393-1.277A9.058,9.058,0,0,0,63.043,148.073Zm-3.315-33.048v7.66H70.753v-7.66Zm23.841,33.1a52.049,52.049,0,0,0,5.573.246,2.559,2.559,0,0,0,1.768-.442,2.062,2.062,0,0,0,.442-1.522V116.178a58.961,58.961,0,0,0-.393-7.194q3.094.1,5.426.368.81.074.81.54a3.558,3.558,0,0,1-.368,1.056,23.671,23.671,0,0,0-.295,5.132v21.238l.147,9.993q0,3.634-1.817,4.935a6.365,6.365,0,0,1-2.8,1.007,41.564,41.564,0,0,1-4.984.246q-1.228,0-1.449-.246a3.494,3.494,0,0,1-.466-1.375A10.389,10.389,0,0,0,83.569,148.122ZM80.5,112.667q2.8.074,5.107.344.761.074.761.565a1.7,1.7,0,0,1-.147.589q-.172.417-.2.516a49.037,49.037,0,0,0-.147,5.377V133.93l.1,6.654q0,.368-.1.454a.867.867,0,0,1-.491.086H81.311q-.417,0-.491-.1a.846.846,0,0,1-.074-.442l.1-6.654V120.107A63.052,63.052,0,0,0,80.5,112.667Zm49.818,26.493q-.344-3.707-.442-8.643a19.524,19.524,0,0,0-.417-3.56,30.63,30.63,0,0,1,5.475.958.761.761,0,0,1,.712.786,5.724,5.724,0,0,1-.295,1.056,4.871,4.871,0,0,0-.221,1.5q0,.172.025.565a75.213,75.213,0,0,0,.54,8.544,44.533,44.533,0,0,1,9.06,4.69q.442.319.442.589a1.138,1.138,0,0,1-.147.467,35.47,35.47,0,0,1-2.308,4.076q-.221.344-.466.344a.8.8,0,0,1-.491-.295,40.741,40.741,0,0,0-6.138-4.223A6.473,6.473,0,0,1,132.8,151.8a11.794,11.794,0,0,1-6.482,1.547,10.377,10.377,0,0,1-7.022-2.21,6.2,6.2,0,0,1-2.234-4.935,6.428,6.428,0,0,1,2.848-5.549,10.837,10.837,0,0,1,6.457-1.792A25.967,25.967,0,0,1,130.318,139.16Zm.1,4.788a12.807,12.807,0,0,0-4.1-.761,5.861,5.861,0,0,0-3.339.835,2.427,2.427,0,0,0-1.129,2.087q0,2.406,4.272,2.406a4.687,4.687,0,0,0,3.339-1.129,3.21,3.21,0,0,0,1.007-2.431A7.018,7.018,0,0,0,130.416,143.948Zm-8.176-25.805a51.219,51.219,0,0,0,6.236-1.08,1.116,1.116,0,0,1,.368-.1q.295,0,.368.491a23.263,23.263,0,0,1,.467,4.076q0,.516-.614.589-2.6.54-8.3,1.35a144.066,144.066,0,0,1-9.8,21.582q-.295.491-.565.491a1.463,1.463,0,0,1-.589-.246,20.507,20.507,0,0,1-3.487-2.578.73.73,0,0,1-.344-.54,1.019,1.019,0,0,1,.246-.614,107.464,107.464,0,0,0,8.716-17.531q-1.915.1-5.033.1-1.522,0-2.774-.049-.565,0-.712-.81a28.439,28.439,0,0,1-.491-4.272q2.725.2,4.665.2,2.922,0,5.794-.246.663-2.333,1.3-5.623a23.143,23.143,0,0,0,.319-4.076,45.476,45.476,0,0,1,5.868,1.056q.81.147.81.737a1.337,1.337,0,0,1-.442.958,6.416,6.416,0,0,0-.81,1.866q-.123.417-.614,2.185Q122.486,117.332,122.24,118.143Zm11.147,4.788q2.062-3.658,2.259-3.928.295-.466.614-.466a1.361,1.361,0,0,1,.442.1,35.309,35.309,0,0,1,9.87,4.739q.442.295.442.54a1.27,1.27,0,0,1-.2.614,28.221,28.221,0,0,1-2.112,3.732q-.221.344-.467.344a.83.83,0,0,1-.442-.2A43.039,43.039,0,0,0,133.387,122.93Zm52.543-12.424,6.973-.1q.417,0,.491.1a.916.916,0,0,1,.074.466l-.1,5.3v10.779l.1,5.3a.933.933,0,0,1-.086.516q-.086.1-.479.1l-6.973-.1H166.607l-6.973.1q-.417,0-.491-.123a.991.991,0,0,1-.074-.491l.1-5.3V116.277l-.1-5.3q0-.417.1-.491a.917.917,0,0,1,.467-.074l6.973.1Zm2.259,18.1v-4.911h-9.6V128.6Zm0-13.725h-9.6v4.788h9.6ZM164.348,128.6h9.158v-4.911h-9.158Zm0-8.937h9.158v-4.788h-9.158Zm19.765,22.76a17.1,17.1,0,0,0,3.879,1.522,2.761,2.761,0,0,1,1.007.393.7.7,0,0,1,.221.589q0,.221-.049.737-.687,4.911-2.971,6.236a10.947,10.947,0,0,1-4.125,1.129q-2.062.221-6.04.221-6.457,0-8.4-1.154-1.768-1.154-1.768-4.272v-7.415a31.273,31.273,0,0,0-.246-4.149q2.112,0,5.132.295.908.123.908.589a1.766,1.766,0,0,1-.246.859,5.125,5.125,0,0,0-.319,2.161v5.7q0,1.62.761,2.062.958.54,4.567.54,5.033,0,6.335-1.007Q184.04,146.477,184.113,142.425Zm-21.877-3.757q.663.2.663.516a1.1,1.1,0,0,1-.049.295,38.9,38.9,0,0,1-4.984,11.049q-.2.344-.393.344a1.5,1.5,0,0,1-.565-.246l-3.266-2.112q-.565-.344-.565-.589a.889.889,0,0,1,.221-.467,29.7,29.7,0,0,0,4.714-9.649q.123-.442.295-.442a2.45,2.45,0,0,1,.565.2Zm31.035-1.571a54.519,54.519,0,0,1,5.893,9.551,1.132,1.132,0,0,1,.1.393q0,.295-.516.565l-3.364,1.817a1.956,1.956,0,0,1-.663.246q-.2,0-.344-.344a46.373,46.373,0,0,0-5.647-9.895,1.011,1.011,0,0,1-.147-.368q0-.147.516-.442l3.167-1.67a1.209,1.209,0,0,1,.54-.2Q193,136.754,193.271,137.1Zm-16.549-3.511a36.836,36.836,0,0,1,6.089,5.991.673.673,0,0,1,.172.393q0,.221-.467.614l-2.774,2.21a1.414,1.414,0,0,1-.614.319q-.172,0-.393-.27a31.935,31.935,0,0,0-5.745-6.433.762.762,0,0,1-.246-.467q0-.221.417-.491l2.5-1.866a.69.69,0,0,1,1.056,0Zm30.593-18.145a19.689,19.689,0,0,1,6.384,1.645q.81.368.81.908a4.07,4.07,0,0,1-.417,1.4,18.517,18.517,0,0,0-.442,4.935,66.889,66.889,0,0,0,.908,11.466q1.3,7.39,4.125,7.39,1.277,0,2.431-1.768a27.92,27.92,0,0,0,2.382-5.23,21.065,21.065,0,0,0,3.216,3.879,1.419,1.419,0,0,1,.516,1.08,2.522,2.522,0,0,1-.147.786,14.2,14.2,0,0,1-3.978,6.089,6.972,6.972,0,0,1-4.567,1.743q-3.339,0-6.015-3.83a22.342,22.342,0,0,1-3.388-9.281,88.274,88.274,0,0,1-1.2-14.633A30.813,30.813,0,0,0,207.316,115.442Zm25.756,7.12q2.48-1.571,3.953-2.308a1.729,1.729,0,0,1,.565-.2.818.818,0,0,1,.54.295,29.753,29.753,0,0,1,6.507,8.348,30.594,30.594,0,0,1,3.339,8.864,1.1,1.1,0,0,1,.049.295q0,.442-.589.81a18.679,18.679,0,0,1-3.928,2.013,1.555,1.555,0,0,1-.442.074q-.491,0-.614-.638A40.216,40.216,0,0,0,238.743,130,33.868,33.868,0,0,0,233.072,122.562Zm56.25-8.667q2.8.074,5.205.344.81.074.81.54a4.294,4.294,0,0,1-.246,1.007,20.012,20.012,0,0,0-.344,4.935v7.1l.1,4.788a.985.985,0,0,1-.074.5q-.074.086-.417.086h-4.174a.9.9,0,0,1-.54-.1.99.99,0,0,1-.074-.491v-1.866H279.255v15.468h11.933V142.4a50,50,0,0,0-.319-6.384q2.946.074,5.279.344.761.1.761.565a4.7,4.7,0,0,1-.246,1.007,18.392,18.392,0,0,0-.368,4.911v6.089l.1,4.42q0,.516-.54.516h-4.125q-.54,0-.54-.516v-2.308h-28.6V153.6q0,.516-.565.516h-4.125a1.067,1.067,0,0,1-.516-.074q-.1-.074-.1-.442l.1-4.42v-6.629a53.574,53.574,0,0,0-.295-6.335q2.946.074,5.279.344.859.1.859.565a8.3,8.3,0,0,1-.295,1.007,15.814,15.814,0,0,0-.344,4.37v3.707h11.294V130.738h-9.7V132.8q0,.393-.1.467a.846.846,0,0,1-.442.074h-4.2q-.393,0-.467-.1a.846.846,0,0,1-.074-.442l.1-4.788v-7.538a55.44,55.44,0,0,0-.295-6.433q2.946.074,5.279.344.761.074.761.614a1.85,1.85,0,0,1-.1.516q-.123.368-.147.491a16.406,16.406,0,0,0-.319,4.42V125.9h9.7v-11a53.3,53.3,0,0,0-.344-6.507q2.6.074,5.524.417.761.074.761.491a4.225,4.225,0,0,1-.319,1.007,23.952,23.952,0,0,0-.246,4.64V125.9h10.312v-5.623Q289.568,116.326,289.322,113.9Zm21.9-1.817a23.442,23.442,0,0,1,5.4,1.841q1.154.614,1.154,1.2a4.033,4.033,0,0,1-.761,1.522,15.238,15.238,0,0,0-1.2,3.56,75.274,75.274,0,0,0-2.112,16.254,53.435,53.435,0,0,0,.295,5.868q3.413-7.464,3.413-7.489a19.234,19.234,0,0,0,1.768,3.167,2.246,2.246,0,0,1,.344.761,1.6,1.6,0,0,1-.246.81,54.468,54.468,0,0,0-2.873,7.587,5.832,5.832,0,0,0-.147,1.571l.1,1.4q0,.516-.663.663a26.648,26.648,0,0,1-4.1.81h-.1q-.417,0-.565-.565a32.941,32.941,0,0,1-1.768-7.439,55.376,55.376,0,0,1-.54-7.538,95.4,95.4,0,0,1,1.719-16.5A50.129,50.129,0,0,0,311.223,112.078Zm11.589,25.928,4.567-.393h.1q.393,0,.393.761a4.356,4.356,0,0,0,2.431,3.806,13.95,13.95,0,0,0,5.77.908,84.659,84.659,0,0,0,9.6-.638,2.105,2.105,0,0,1,.221-.025q.393,0,.491.663a31.234,31.234,0,0,1,.295,4.321q0,.491-.123.589a1.946,1.946,0,0,1-.737.147,69.711,69.711,0,0,1-8.2.565,27.64,27.64,0,0,1-8.913-1.1,8.754,8.754,0,0,1-4.149-3.069Q322.812,142.3,322.812,138.006Zm1.6-14.265q.074-4.321.147-4.935a.855.855,0,0,1,.712-.859,59.771,59.771,0,0,1,10.926-.908q4.272,0,7.44.295a2.291,2.291,0,0,1,1.007.2q.147.1.147.467,0,2.873-.1,4.272-.074.614-.54.614h-.123q-4.518-.319-8.2-.319A64.481,64.481,0,0,0,324.408,123.741Z" transform="translate(99.937 220.739)" fill="#fff"/>
    </g>
  </g>
</svg>
