<svg xmlns="http://www.w3.org/2000/svg" xmlns:xlink="http://www.w3.org/1999/xlink" width="340" height="205.131" viewBox="0 0 340 205.131">
  <defs>
    <linearGradient id="linear-gradient" x1="-0.004" x2="0.998" gradientUnits="objectBoundingBox">
      <stop offset="0" stop-color="#00a0f5"/>
      <stop offset="1" stop-color="#753ab3"/>
    </linearGradient>
  </defs>
  <g id="Group_25300" data-name="Group 25300" transform="translate(-18 -423.869)">
    <g id="Group_24276" data-name="Group 24276" transform="translate(18 567.933)">
      <g id="Group_24720" data-name="Group 24720" transform="translate(0 0.067)">
        <g id="Header">
          <rect id="Rectangle_14072" data-name="Rectangle 14072" width="50" height="4" fill="url(#linear-gradient)"/>
        </g>
      </g>
    </g>
    <path id="Path_11375" data-name="Path 11375" d="M27.128-51.973a11.923,11.923,0,0,1,2.01,2.1.469.469,0,0,1,.127.269q0,.127-.285.348l-.744.491,2.754-.063q.348,0,.348.317v2.184q0,.253-.063.3a.545.545,0,0,1-.285.047l-4.352-.063H23.472a26.26,26.26,0,0,0,1.361,6.125,21.4,21.4,0,0,0,1.551-2.849A14.868,14.868,0,0,0,27-44.772a16.572,16.572,0,0,1,2.611,1q.4.206.4.459a.832.832,0,0,1-.285.491,4.182,4.182,0,0,0-.649.965,29.018,29.018,0,0,1-2.849,4.827q1.345,2.042,2.39,2.042.617,0,.965-.839a12.784,12.784,0,0,0,.57-2.279,5.987,5.987,0,0,0,1.614,1.076q.839.4.839.744a3.283,3.283,0,0,1-.158.712,7.253,7.253,0,0,1-1.6,3.1,2.958,2.958,0,0,1-2.136.823q-2.358,0-4.558-2.975a20.262,20.262,0,0,1-2.469,2.121,2.506,2.506,0,0,1-.775.427q-.19,0-.712-.617a10.4,10.4,0,0,0-1.076-1.029q-.032.158-.348.158l-2.754-.063H12.964l-2.754.063q-.253,0-.3-.063a.591.591,0,0,1-.047-.3l.063-2.057v-2.152l-.063-2.073q0-.253.063-.3a.545.545,0,0,1,.285-.047l2.754.063h3.054l2.738-.063q.269,0,.317.063a.545.545,0,0,1,.047.285l-.063,2.073v2.152l.032,1.772a16.745,16.745,0,0,0,3.577-2.88,30.1,30.1,0,0,1-2.311-8.941H8.817v2.168a31.29,31.29,0,0,1-.586,6.52,18.821,18.821,0,0,1-2.168,5.666q-.364.649-.586.649-.142,0-.681-.491a8.126,8.126,0,0,0-2.073-1.393,13.567,13.567,0,0,0,2.326-5.159,30.849,30.849,0,0,0,.617-6.884L5.6-48.507q0-.222.079-.269A.638.638,0,0,1,6-48.823l4.368.063h9.7q-.348-3.086-.4-3.308,1.488.047,3.276.222.491.063.491.364a1.8,1.8,0,0,1-.174.586,3.345,3.345,0,0,0-.063.775q0,.158.032,1.361h3.118a19.54,19.54,0,0,0-1.488-1.678.376.376,0,0,1-.158-.3q0-.19.253-.317L26.447-52a.779.779,0,0,1,.348-.127A.557.557,0,0,1,27.128-51.973ZM16.4-35.894v-2.374H12.552v2.374Zm6.188,7.058a8.78,8.78,0,0,0,2.342.981,2.3,2.3,0,0,1,.649.253.433.433,0,0,1,.142.364q0,.111-.047.506A4.039,4.039,0,0,1,23.9-23.55q-1.44.775-6.362.775-4.352,0-5.6-.649-1.2-.681-1.2-2.817v-2.849a15.567,15.567,0,0,0-.158-2.469,24.123,24.123,0,0,1,3.2.19q.586.111.586.3a1.356,1.356,0,0,1-.158.554,2.9,2.9,0,0,0-.19,1.155v2.073a1.44,1.44,0,0,0,.506,1.314,10.518,10.518,0,0,0,3.276.285q2.231,0,2.738-.047a2.963,2.963,0,0,0,1.219-.317Q22.538-26.462,22.586-28.836ZM19.215-44.582q.237,0,.285.063a.749.749,0,0,1,.047.332v1.867q0,.364-.332.364L16.3-42.018H13l-2.88.063a.5.5,0,0,1-.317-.063.591.591,0,0,1-.047-.3v-1.867q0-.285.079-.348a.494.494,0,0,1,.285-.047l2.88.063H16.3ZM28.109-31.4a26.664,26.664,0,0,1,3.83,5.412.852.852,0,0,1,.095.285q0,.142-.364.364L29.66-24.1a1.182,1.182,0,0,1-.443.206q-.111,0-.206-.237a20.68,20.68,0,0,0-3.466-5.6q-.174-.174-.174-.269,0-.127.332-.317l1.725-1.108a1.524,1.524,0,0,1,.38-.158Q27.9-31.589,28.109-31.4Zm-21.554.617q.095-.285.237-.285a1.529,1.529,0,0,1,.411.127l1.9.839q.411.19.411.364a.922.922,0,0,1-.047.222,23.766,23.766,0,0,1-3.308,5.84q-.158.206-.285.206a.9.9,0,0,1-.364-.142L3.468-24.753q-.317-.19-.317-.348a.533.533,0,0,1,.127-.269A17.887,17.887,0,0,0,6.554-30.782ZM18.091-32.76a19.532,19.532,0,0,1,3.054,3.213.518.518,0,0,1,.142.253q0,.095-.253.269l-1.678,1.3a.852.852,0,0,1-.427.222q-.127,0-.253-.222A22.984,22.984,0,0,0,15.844-31.1q-.174-.19-.174-.253,0-.095.317-.332l1.424-1.044a.725.725,0,0,1,.38-.174A.573.573,0,0,1,18.091-32.76ZM50.6-28.282a11.4,11.4,0,0,0-.285,1.488l-.111.586a18.653,18.653,0,0,0,3.7-7.248,43.8,43.8,0,0,0,1.06-8.277q-1.187.016-2.121.047l-.665.016a.538.538,0,0,1-.332-.063.545.545,0,0,1-.047-.285v-2.374q0-.253.063-.3a.638.638,0,0,1,.317-.047l2.928.063.032-2.6a36.4,36.4,0,0,0-.237-4.574q1.662.047,3.244.237.491.047.491.348a3.068,3.068,0,0,1-.19.775,13.85,13.85,0,0,0-.206,3.308q0,1.693-.032,2.5h1.852l3.529-.063a.35.35,0,0,1,.4.4q-.063,1.092-.063,3.07a99.763,99.763,0,0,1-.95,14.844,4.3,4.3,0,0,1-1.408,2.8,4.279,4.279,0,0,1-2.706.76q-.681,0-1.772-.063-.586-.047-.7-.222a3.6,3.6,0,0,1-.158-.918,7.521,7.521,0,0,0-.649-2.168,19.5,19.5,0,0,0,2.69.253q1.456,0,1.757-2.042a94.453,94.453,0,0,0,.807-13.7H58.114a55,55,0,0,1-1.2,9.305,20.278,20.278,0,0,1-4.8,9.226q-.491.491-.681.491-.158,0-.617-.459a5.694,5.694,0,0,0-2.073-1.535q.728-.665,1.044-1.013a2.451,2.451,0,0,1-.617.127q-5.254,1.044-11.315,1.678a4.962,4.962,0,0,0-1.2.237,1.585,1.585,0,0,1-.554.19q-.3,0-.443-.554-.285-1.219-.554-2.849.665.032,1.345.032.823,0,2.057-.063,2.485-.142,3.656-.253v-1.883H40.247l-3.941.063q-.364,0-.364-.317v-1.947q0-.269.063-.317a.591.591,0,0,1,.3-.047l3.941.063h1.915V-32.95h-1.3l-3.877.063a.577.577,0,0,1-.348-.063.591.591,0,0,1-.047-.3l.063-2.675v-3.466l-.063-2.659q0-.269.063-.317a.749.749,0,0,1,.332-.047l3.877.063h1.3v-1.424h-2.39l-4.115.063q-.269,0-.317-.063a.545.545,0,0,1-.047-.285v-1.915a.5.5,0,0,1,.063-.317.591.591,0,0,1,.3-.047l4.115.079h2.39v-1.472q-2.785.269-4.178.332-.3.016-.459.016a.6.6,0,0,1-.491-.174,2.145,2.145,0,0,1-.253-.554,6.762,6.762,0,0,0-1-1.757A63.365,63.365,0,0,0,47.258-51.1a12.123,12.123,0,0,0,1.788-.538A14.553,14.553,0,0,1,50.9-49.868a.921.921,0,0,1,.253.586q0,.332-.681.332a12.7,12.7,0,0,0-1.456.222q-2.184.443-3.925.649v1.82h1.867l4.1-.079q.317,0,.317.364v1.915a.7.7,0,0,1-.032.3q-.032.047-.222.047l-4.162-.063H45.09v1.424h1.393l3.877-.063q.269,0,.317.063a.591.591,0,0,1,.047.3l-.063,2.659v3.466l.063,2.675q0,.269-.063.317a.591.591,0,0,1-.3.047l-3.877-.063H45.09v1.393h1.187l3.956-.063q.269,0,.317.063a.591.591,0,0,1,.047.3v1.947q0,.317-.364.317l-3.956-.063H45.09v1.551Q47.748-27.791,50.6-28.282Zm-2.69-6.742v-1.709H45.09v1.709Zm0-5.286H45.09v1.693h2.817Zm-8.435,5.286h2.69v-1.709h-2.69Zm0-3.592h2.69v-1.693h-2.69ZM84.4-44.74q-1.219,9-4.051,13.958-2.136,3.735-5.523,3.735a4.937,4.937,0,0,1-4.146-2.469A10.23,10.23,0,0,1,69.1-35.372a11.621,11.621,0,0,1,3.656-8.435,14.279,14.279,0,0,1,10.54-4.146q6.093,0,9.5,3.608a10.717,10.717,0,0,1,2.849,7.628q0,8.8-9.986,11.806a1.84,1.84,0,0,1-.475.079q-.475,0-.918-.665A6.776,6.776,0,0,0,82-27.538q5-1.187,7.28-3.339a8.307,8.307,0,0,0,2.5-6.346A7.392,7.392,0,0,0,89.512-42.7a6.816,6.816,0,0,0-4.985-2.042Zm-3.767.19A9.962,9.962,0,0,0,75.1-41.607a8.934,8.934,0,0,0-2.532,6,7,7,0,0,0,.807,3.592q.633,1.044,1.393,1.044,1.329,0,2.437-1.978a27.8,27.8,0,0,0,2.168-5.571A40.741,40.741,0,0,0,80.634-44.55ZM105.5-41.544a48.538,48.538,0,0,1,10.3,4.415q.427.222.427.554a.777.777,0,0,1-.063.285,18.419,18.419,0,0,1-1.393,2.817q-.206.364-.427.364a.537.537,0,0,1-.364-.158,35.715,35.715,0,0,0-8.514-4.162v7.169q0,1.772.127,6.346v.095q0,.4-.586.4-.728.047-1.44.047-.728,0-1.44-.047-.617,0-.617-.491.127-3.133.127-6.378V-46.244a29.283,29.283,0,0,0-.317-4.8,22.845,22.845,0,0,1,4.051.522q.617.127.617.554a1.678,1.678,0,0,1-.269.744,10.742,10.742,0,0,0-.222,3.039Zm5.84-6.773,1.709-1.187a.362.362,0,0,1,.206-.079.507.507,0,0,1,.285.142,13.666,13.666,0,0,1,3.07,3.466.4.4,0,0,1,.095.237.387.387,0,0,1-.174.285l-1.377,1a.434.434,0,0,1-.253.111q-.142,0-.285-.206A16.891,16.891,0,0,0,111.335-48.317Zm2.975-2.136,1.63-1.171a.362.362,0,0,1,.206-.079.447.447,0,0,1,.269.142,12.516,12.516,0,0,1,3.086,3.339.552.552,0,0,1,.095.269.4.4,0,0,1-.19.317l-1.3,1.013a.474.474,0,0,1-.253.095.359.359,0,0,1-.3-.206A15.334,15.334,0,0,0,114.31-50.453Zm28.426,21.776H130.171v1.915q0,.411-.158.522a1.116,1.116,0,0,1-.554.111q-.633.032-1.282.032t-1.282-.032q-.681-.032-.68-.4V-26.6q.095-5.048.095-6.441V-43.094q0-1.9-.063-3.26,0-.459.364-.459,1.709.095,5.792.095h7.707q4.574,0,6.093-.063.427,0,.427.491v.158l-.032,5.238v7.739q0,1.757.158,6.172,0,.554-.617.554-.76.016-1.488.016-.76,0-1.488-.032-.3,0-.38-.095a1.114,1.114,0,0,1-.047-.411Zm0-3.434V-43.284h-12.6v11.173Zm10.084-6.995a47.857,47.857,0,0,0,6.995.4H170.26q1.535,0,3.956-.047,3.086-.047,3.5-.063h.158q.427,0,.427.459.047.744.047,1.535,0,.775-.047,1.519,0,.491-.459.491h-.127q-4.858-.063-7.232-.063H158.818l-4.764.4a.713.713,0,0,1-.744-.68A30.816,30.816,0,0,1,152.82-39.106Zm30.1-5.966q.807-.981,2.263-2.532a.589.589,0,0,1,.459-.253,1.018,1.018,0,0,1,.427.158,29.2,29.2,0,0,1,6.188,4.605.779.779,0,0,1,.285.459.707.707,0,0,1-.19.411q-1.06,1.408-2.01,2.437-.269.253-.4.253a.692.692,0,0,1-.411-.253A33.4,33.4,0,0,0,182.924-45.073Zm.712,16.174a23.8,23.8,0,0,0,4.384-1.614q3.134-1.63,5.207-2.991,1.82-1.187,4.115-3.039a68.6,68.6,0,0,0,5.175-4.558,49.006,49.006,0,0,0,3.719-4.257,15.186,15.186,0,0,0,.9,3.782,1.7,1.7,0,0,1,.158.617,1.772,1.772,0,0,1-.522.981,49.947,49.947,0,0,1-7.454,6.868,74.682,74.682,0,0,1-9.78,6.346,12.691,12.691,0,0,0-2.168,1.5.926.926,0,0,1-.586.317.806.806,0,0,1-.554-.348A21.373,21.373,0,0,1,183.636-28.9ZM210.97-38.98q.095-.142,1.076-1.757.427-.7.649-1a.642.642,0,0,1,.491-.332.351.351,0,0,1,.111.016,23.2,23.2,0,0,1,6.235,3.181q.348.253.348.475a.977.977,0,0,1-.127.364,14.136,14.136,0,0,1-1.424,2.469q-.269.317-.427.317a.7.7,0,0,1-.38-.19A29.114,29.114,0,0,0,210.97-38.98Zm3.925-7.612,1.709-2.6q.222-.364.459-.364a.866.866,0,0,1,.364.111,21.232,21.232,0,0,1,6.093,3.592.508.508,0,0,1,.253.427.78.78,0,0,1-.127.411,12.3,12.3,0,0,1-1.662,2.437.348.348,0,0,1-.317.19.858.858,0,0,1-.491-.222A28.015,28.015,0,0,0,214.895-46.592Zm-1.361,18.468a16.89,16.89,0,0,0,4.4-1.583,59.546,59.546,0,0,0,8.878-5.6,57.129,57.129,0,0,0,9.337-9.052,20.313,20.313,0,0,0,.95,3.64,1.7,1.7,0,0,1,.158.617,1.081,1.081,0,0,1-.348.744,70.544,70.544,0,0,1-8.245,7.486,77.623,77.623,0,0,1-9.685,6.093,13.478,13.478,0,0,0-1.883,1.108.742.742,0,0,1-.522.253.833.833,0,0,1-.649-.4A19.519,19.519,0,0,1,213.534-28.123Zm44.046-6.963v-3.26h-7.486q-.855,0-2.453.095-1.456.079-2.089.095-.427.047-.491-.744-.063-.807-.158-2.659,1.852.158,5.191.158h5.634q3.371,0,4.8-.063.491,0,.491.427v.095L260.95-36.7v7.47q0,1.361.127,4.605,0,.38-.174.491a1.237,1.237,0,0,1-.538.127q-1.045.063-2.2.063a.77.77,0,0,1-.506-.111.6.6,0,0,1-.079-.364V-25.4H249.9q-1.978,0-4.479.158-.411,0-.459-.649a19,19,0,0,1-.158-2.69q1.757.127,5.222.127h7.549v-3.577h-6.868q-1.614,0-4.447.127-.506,0-.554-.712a19.685,19.685,0,0,1-.127-2.627q2.184.158,5.064.158Zm11.92-4.02a47.857,47.857,0,0,0,6.995.4h10.445q1.535,0,3.956-.047,3.086-.047,3.5-.063h.158q.427,0,.427.459.047.744.047,1.535,0,.775-.047,1.519,0,.491-.459.491h-.127q-4.858-.063-7.232-.063H275.5l-4.764.4a.713.713,0,0,1-.744-.68A30.812,30.812,0,0,1,269.5-39.106Z" transform="translate(17.438 476)" fill="#00a0f5"/>
    <path id="Path_11376" data-name="Path 11376" d="M302.39-39.541q1.614-.074,4.826-.518,12.036-1.762,18.21-2.576a1.285,1.285,0,0,1,.178-.015q.415,0,.459.341a14.273,14.273,0,0,1,.341,2.665q0,.459-.577.459a15.175,15.175,0,0,0-3.7.666,12.289,12.289,0,0,0-6.04,4.086,7.852,7.852,0,0,0-1.688,4.856q0,5.863,8.068,6.366.666,0,.666.459a9.406,9.406,0,0,1-.341,2.606q-.118.637-.563.637a12.309,12.309,0,0,1-8.024-2.635,8.293,8.293,0,0,1-3.168-6.736,10.011,10.011,0,0,1,1.732-5.818,14.7,14.7,0,0,1,4.086-3.79v-.059q-5.463,1.036-10.186,2.013-1.569.37-1.91.489a3.6,3.6,0,0,1-.666.237.624.624,0,0,1-.577-.459A23.086,23.086,0,0,1,302.39-39.541Zm18.861,5.389,1.6-1.125a.346.346,0,0,1,.2-.074.473.473,0,0,1,.259.133,12.7,12.7,0,0,1,2.872,3.257.366.366,0,0,1,.089.207.333.333,0,0,1-.163.266l-1.273.947a.468.468,0,0,1-.259.089q-.126,0-.259-.192A15.488,15.488,0,0,0,321.251-34.153Zm2.783-2,1.525-1.081a.358.358,0,0,1,.192-.089.418.418,0,0,1,.252.133,11.734,11.734,0,0,1,2.887,3.124.531.531,0,0,1,.089.266.365.365,0,0,1-.178.281l-1.214.947a.406.406,0,0,1-.237.1.362.362,0,0,1-.281-.192A14.6,14.6,0,0,0,324.034-36.151Zm9.623,10.274a.614.614,0,0,1,.385.178,23.081,23.081,0,0,1,6.04,5.552.859.859,0,0,1,.207.459.719.719,0,0,1-.3.489l-1.851,1.569q-.326.281-.429.281a.5.5,0,0,1-.415-.3,22.018,22.018,0,0,0-5.744-5.8q-.266-.178-.266-.3a.743.743,0,0,1,.207-.37l1.7-1.51A.658.658,0,0,1,333.657-25.877ZM11.761,2.044a18.1,18.1,0,0,1,3.553.7q.548.192.548.548a.778.778,0,0,1-.148.489,2.37,2.37,0,0,0-.429,1.1q-.044.237-.133.814-.059.429-.118.7a62.278,62.278,0,0,0,7.891-1.273.87.87,0,0,1,.207-.03q.237,0,.311.341a9.544,9.544,0,0,1,.3,2.058q0,.489-.637.607a77.125,77.125,0,0,1-8.6,1.273q-.192,1.865-.222,3.065a15.48,15.48,0,0,1,4.649-.666,7.286,7.286,0,0,0,.5-2.221,10.346,10.346,0,0,1,2.694,1.125q.548.355.548.666a.561.561,0,0,1-.178.37,2.483,2.483,0,0,0-.385.592,8.529,8.529,0,0,1,4.767,2.931,7.074,7.074,0,0,1,1.436,4.471A7.3,7.3,0,0,1,25.6,25.405a14.111,14.111,0,0,1-5.715,2.828,1.929,1.929,0,0,1-.5.089q-.5,0-.829-.651a7.531,7.531,0,0,0-1.791-1.88,19.31,19.31,0,0,0,3.405-1.066A11.9,11.9,0,0,0,22.39,23.57a5.387,5.387,0,0,0,2.428-4.545A4.108,4.108,0,0,0,23.56,15.96a5.411,5.411,0,0,0-2.487-1.332,32.966,32.966,0,0,1-5.729,7.935,14.531,14.531,0,0,0,.533,1.377.716.716,0,0,1,.089.311q0,.207-.326.444a8.829,8.829,0,0,1-1.821,1.051.7.7,0,0,1-.3.1q-.148,0-.311-.252a6.1,6.1,0,0,1-.5-1.184Q9.54,26.6,7.423,26.6a3.1,3.1,0,0,1-2.561-1.125,4.074,4.074,0,0,1-.8-2.635,8.937,8.937,0,0,1,2.413-5.8,14.708,14.708,0,0,1,4.678-3.627q.044-1.629.148-3.79-1.11.044-2.028.044L8.193,9.653A14.6,14.6,0,0,1,6.46,9.594q-.5-.044-.548-.7a11.548,11.548,0,0,1-.089-1.155q-.044-.888-.059-1.155a27.813,27.813,0,0,0,3.2.163q.3,0,2.68-.03a32.012,32.012,0,0,0,.252-3.316A6.928,6.928,0,0,0,11.761,2.044ZM14.5,19.572a24.94,24.94,0,0,0,3.509-5.241,13.3,13.3,0,0,0-3.879.7A32.193,32.193,0,0,0,14.5,19.572Zm-3.346-3.183A11.174,11.174,0,0,0,8.193,19.38a5.276,5.276,0,0,0-.947,2.828,1.171,1.171,0,0,0,.341.888.9.9,0,0,0,.666.266q1.273,0,3.509-1.762A43.488,43.488,0,0,1,11.154,16.389Zm37.959,3.538q-.207-2.236-.266-5.211a11.772,11.772,0,0,0-.252-2.147,18.468,18.468,0,0,1,3.3.577.459.459,0,0,1,.429.474,3.452,3.452,0,0,1-.178.637,2.937,2.937,0,0,0-.133.9q0,.1.015.341a45.351,45.351,0,0,0,.326,5.152,26.852,26.852,0,0,1,5.463,2.828q.266.192.266.355a.686.686,0,0,1-.089.281A21.387,21.387,0,0,1,56.6,26.575q-.133.207-.281.207a.485.485,0,0,1-.3-.178,24.567,24.567,0,0,0-3.7-2.546,3.9,3.9,0,0,1-1.717,3.494,7.112,7.112,0,0,1-3.908.933,6.257,6.257,0,0,1-4.234-1.332,3.739,3.739,0,0,1-1.347-2.976,3.876,3.876,0,0,1,1.717-3.346,6.534,6.534,0,0,1,3.894-1.081A15.657,15.657,0,0,1,49.113,19.928Zm.059,2.887a7.722,7.722,0,0,0-2.472-.459,3.534,3.534,0,0,0-2.013.5A1.464,1.464,0,0,0,44,24.117q0,1.451,2.576,1.451a2.826,2.826,0,0,0,2.013-.681,1.936,1.936,0,0,0,.607-1.466A4.234,4.234,0,0,0,49.172,22.815Zm-4.93-15.56A30.883,30.883,0,0,0,48,6.6a.673.673,0,0,1,.222-.059q.178,0,.222.3A14.026,14.026,0,0,1,48.728,9.3q0,.311-.37.355-1.569.326-5,.814a86.868,86.868,0,0,1-5.907,13.013q-.178.3-.341.3a.882.882,0,0,1-.355-.148,12.366,12.366,0,0,1-2.1-1.554.44.44,0,0,1-.207-.326.614.614,0,0,1,.148-.37,64.8,64.8,0,0,0,5.256-10.57q-1.155.059-3.035.059-.918,0-1.673-.03-.34,0-.429-.489a17.149,17.149,0,0,1-.3-2.576q1.643.118,2.813.118,1.762,0,3.494-.148.4-1.406.785-3.39A13.955,13.955,0,0,0,41.7,1.9a27.42,27.42,0,0,1,3.538.637q.489.089.489.444a.806.806,0,0,1-.266.577,3.869,3.869,0,0,0-.489,1.125Q44.893,4.931,44.6,6,44.39,6.766,44.242,7.255Zm6.721,2.887q1.244-2.206,1.362-2.369.178-.281.37-.281a.821.821,0,0,1,.266.059,21.29,21.29,0,0,1,5.951,2.857q.266.178.266.326a.766.766,0,0,1-.118.37,17.015,17.015,0,0,1-1.273,2.25q-.133.207-.281.207a.5.5,0,0,1-.266-.118A25.952,25.952,0,0,0,50.963,10.142Zm24.013-2.4q1.88-.341,4.308-1.022a.519.519,0,0,1,.163-.03q.281,0,.311.326.178,1.214.222,2.176v.133q0,.341-.459.444a48.249,48.249,0,0,1-5.27,1.155q-3.005,9.8-5.552,16.4-.133.355-.37.355a1.255,1.255,0,0,1-.3-.059A19.726,19.726,0,0,1,65.6,26.5a.486.486,0,0,1-.281-.429.559.559,0,0,1,.03-.178,120.436,120.436,0,0,0,5.256-14.36,52.111,52.111,0,0,1-5.3.341.555.555,0,0,1-.637-.489q-.163-.8-.429-2.768a16.315,16.315,0,0,0,2.25.1,39.967,39.967,0,0,0,4.9-.311q.355-1.392.77-3.79a21.5,21.5,0,0,0,.178-2.783,18.978,18.978,0,0,1,3.8.844.472.472,0,0,1,.341.489.862.862,0,0,1-.148.489,9.062,9.062,0,0,0-.637,1.2q-.163.592-.415,1.673Q75.08,7.388,74.976,7.743Zm.548,13.916A11.573,11.573,0,0,1,78.1,21.2a.419.419,0,0,1,.459.429,2.7,2.7,0,0,0,1.48,2.339,7.352,7.352,0,0,0,3.153.518,44.408,44.408,0,0,0,5.093-.429.435.435,0,0,1,.1-.015q.237,0,.266.281a18.482,18.482,0,0,1,.237,2.65,1.2,1.2,0,0,1,.015.148q0,.3-.489.326a28.2,28.2,0,0,1-4.13.341,18.124,18.124,0,0,1-4.915-.518,5.659,5.659,0,0,1-2.487-1.451A6.089,6.089,0,0,1,75.524,21.66Zm2.369-5.729q-.133-2.147-.133-2.754a.6.6,0,0,1,.118-.444.855.855,0,0,1,.429-.163,29.76,29.76,0,0,1,5.907-.7,21.578,21.578,0,0,1,3.553.3.961.961,0,0,1,.429.133.428.428,0,0,1,.089.326q.044.622.044,1.392,0,.459-.015,1.022t-.355.577a.918.918,0,0,1-.222-.03,19.593,19.593,0,0,0-3.76-.355A31.561,31.561,0,0,0,77.893,15.93Zm31.193-7.817q-1.14,8.424-3.79,13.058-2,3.494-5.167,3.494a4.618,4.618,0,0,1-3.879-2.31,9.57,9.57,0,0,1-1.48-5.478,10.872,10.872,0,0,1,3.42-7.891,13.358,13.358,0,0,1,9.86-3.879q5.7,0,8.883,3.375A10.026,10.026,0,0,1,119.6,15.62q0,8.231-9.342,11.044a1.722,1.722,0,0,1-.444.074q-.444,0-.859-.622a6.338,6.338,0,0,0-2.117-1.91q4.678-1.11,6.81-3.124a7.771,7.771,0,0,0,2.339-5.937,6.915,6.915,0,0,0-2.117-5.122,6.376,6.376,0,0,0-4.663-1.91Zm-3.523.178a9.319,9.319,0,0,0-5.182,2.754,8.357,8.357,0,0,0-2.369,5.611,6.544,6.544,0,0,0,.755,3.361q.592.977,1.3.977,1.244,0,2.28-1.851a26,26,0,0,0,2.028-5.211A38.112,38.112,0,0,0,105.562,8.291Zm35.368,2.694V21.023q0,2.665.089,6.307v.089q0,.429-.459.429-.74.044-1.51.044t-1.51-.044q-.429,0-.429-.385v-.1q.015-.711.074-3.361.044-1.732.044-2.857V14.08a47.811,47.811,0,0,1-8.335,5.818.909.909,0,0,1-.459.118.926.926,0,0,1-.637-.3,11.192,11.192,0,0,0-2.606-1.791,53.11,53.11,0,0,0,9.549-6.218A47.978,47.978,0,0,0,141.2,5.375a10.6,10.6,0,0,0,1.925-3.124,25.985,25.985,0,0,1,3.361,2.132.512.512,0,0,1,.237.444.776.776,0,0,1-.429.666,11.6,11.6,0,0,0-1.806,1.673A51.685,51.685,0,0,1,140.931,10.986ZM152.967,17.2a16.167,16.167,0,0,0,3.094-2.576q2.295-2.339,4.4-4.575A7.049,7.049,0,0,1,162,8.721a2.442,2.442,0,0,1,1.184-.281,2.947,2.947,0,0,1,1.332.281,6.316,6.316,0,0,1,1.3.962,95.622,95.622,0,0,0,13.591,9.86.517.517,0,0,1,.37.474.677.677,0,0,1-.1.341,16.582,16.582,0,0,1-1.569,2.635q-.237.34-.459.341a.552.552,0,0,1-.326-.118,141.186,141.186,0,0,1-13.443-10.6.765.765,0,0,0-.474-.207.694.694,0,0,0-.489.237q-.874.9-2.413,2.65-1.717,1.954-2.532,2.857a10.634,10.634,0,0,0-1.214,1.54q-.252.4-.548.4a.646.646,0,0,1-.429-.207Q154.714,18.995,152.967,17.2Zm16.552-9.756,1.614-1.125a.278.278,0,0,1,.178-.074.424.424,0,0,1,.266.133,13.013,13.013,0,0,1,2.887,3.242.378.378,0,0,1,.089.222.358.358,0,0,1-.178.266l-1.273.933a.406.406,0,0,1-.237.1.362.362,0,0,1-.281-.192A15.02,15.02,0,0,0,169.518,7.447Zm2.8-2.013,1.51-1.081a.4.4,0,0,1,.192-.074.474.474,0,0,1,.266.133,11.841,11.841,0,0,1,2.872,3.124.459.459,0,0,1,.089.252.4.4,0,0,1-.178.3l-1.214.933a.406.406,0,0,1-.237.1.362.362,0,0,1-.281-.192A14.336,14.336,0,0,0,172.316,5.434ZM185.493,7.8q.755-.918,2.117-2.369a.551.551,0,0,1,.429-.237.952.952,0,0,1,.4.148,27.317,27.317,0,0,1,5.789,4.308.729.729,0,0,1,.266.429.661.661,0,0,1-.178.385q-.992,1.318-1.88,2.28-.252.237-.37.237a.647.647,0,0,1-.385-.237A31.248,31.248,0,0,0,185.493,7.8Zm.666,15.13a22.262,22.262,0,0,0,4.1-1.51q2.931-1.525,4.871-2.8,1.7-1.11,3.849-2.842a64.176,64.176,0,0,0,4.841-4.264A45.847,45.847,0,0,0,207.3,7.536a14.208,14.208,0,0,0,.844,3.538,1.593,1.593,0,0,1,.148.577,1.658,1.658,0,0,1-.489.918,46.723,46.723,0,0,1-6.973,6.425,69.863,69.863,0,0,1-9.149,5.937,11.871,11.871,0,0,0-2.028,1.406.867.867,0,0,1-.548.3.754.754,0,0,1-.518-.326A19.994,19.994,0,0,1,186.159,22.933ZM225.909,11.1a45.406,45.406,0,0,1,9.638,4.13q.4.207.4.518a.727.727,0,0,1-.059.266,17.232,17.232,0,0,1-1.3,2.635q-.192.341-.4.341a.5.5,0,0,1-.34-.148,33.411,33.411,0,0,0-7.965-3.894V21.66q0,1.658.118,5.937v.089q0,.37-.548.37-.681.044-1.347.044t-1.347-.044q-.577,0-.577-.459.118-2.931.118-5.966V6.707a27.394,27.394,0,0,0-.3-4.486,21.371,21.371,0,0,1,3.79.489q.577.118.577.518a1.57,1.57,0,0,1-.252.7,10.049,10.049,0,0,0-.207,2.842Zm28.736-9.431a16.977,16.977,0,0,1,3.45.859.509.509,0,0,1,.37.518.534.534,0,0,1-.207.444,2.252,2.252,0,0,0-.518.725q-.059.148-.192.444-.267.637-.518,1.2a49.022,49.022,0,0,0,5.522-.947,1.285,1.285,0,0,1,.178-.015q.237,0,.311.326A10.522,10.522,0,0,1,263.35,7.4v.089q0,.326-.518.4-3.538.518-7.106.918a39.279,39.279,0,0,1-2.265,3.361l.03.059a5.481,5.481,0,0,1,3.035-.933,3.339,3.339,0,0,1,3.686,3.272q3.109-1.436,4.471-2.132a8.973,8.973,0,0,0,2.295-1.629,16.681,16.681,0,0,1,2.132,2.665,1.272,1.272,0,0,1,.237.666q0,.341-.459.429a9.94,9.94,0,0,0-1.851.459q-4.456,1.569-6.514,2.413v4.886q0,.459-.577.548a14.571,14.571,0,0,1-2.147.148q-.4,0-.4-.489,0-2.606.03-3.686a9.319,9.319,0,0,0-2.946,2.117,2.923,2.923,0,0,0-.711,1.91q0,2.087,4.2,2.087a54.055,54.055,0,0,0,7.55-.607h.089q.3,0,.326.341a11.375,11.375,0,0,1,.281,2.487v.1q0,.459-.34.459a59.6,59.6,0,0,1-7.506.4q-7.61,0-7.61-5a5.879,5.879,0,0,1,1.688-4.13,17.488,17.488,0,0,1,4.708-3.257,2.922,2.922,0,0,0-.459-1.673,1.457,1.457,0,0,0-1.184-.429h-.178q-1.762.074-4.19,2.191-1.406,1.377-3.035,3.3-.222.266-.37.266-.118,0-.326-.207a13.04,13.04,0,0,1-1.732-2,.508.508,0,0,1-.118-.281.44.44,0,0,1,.207-.326,31.26,31.26,0,0,0,6.351-7.521q-2.117.089-4.856.089-.341,0-.429-.489-.1-.577-.3-2.5,1.451.059,3.05.059,1.925,0,3.923-.1a24.885,24.885,0,0,0,.9-2.606A7.722,7.722,0,0,0,254.645,1.674ZM19.311,72.794q1.066.089,2.117.089.592,0,1.125-.03a.9.9,0,0,0,.7-.266,1.158,1.158,0,0,0,.148-.681v-6H17.431l-4.027.059a.469.469,0,0,1-.3-.059.51.51,0,0,1-.044-.266V64.089q-.059.044-.577.311-.4.222-1.11.563-.859.415-1.007.489v5.063l.059,5.344q0,.237-.074.281a.553.553,0,0,1-.281.044H7.63q-.237,0-.281-.059a.51.51,0,0,1-.044-.266l.059-5.315v-3.7l-2.117.918a2.925,2.925,0,0,0-1.007.607.659.659,0,0,1-.518.266.477.477,0,0,1-.444-.34,23.422,23.422,0,0,1-1.007-2.931,16.659,16.659,0,0,0,2.813-.814q1.125-.355,2.28-.814V57.516H5.572a34.5,34.5,0,0,1-.7,3.494q-.178.725-.37.725a2.379,2.379,0,0,1-.7-.311,10.965,10.965,0,0,0-1.658-.607,32.875,32.875,0,0,0,1.273-7.935q.015-.4.015-.77,0-.622-.044-1.17,1.5.178,2.443.37.489.118.489.355a1.159,1.159,0,0,1-.148.489,3.713,3.713,0,0,0-.148,1.036l-.118,1.48H7.364v-1.7A39.751,39.751,0,0,0,7.127,48.4q1.643.044,3.124.207.489.059.489.311a2.381,2.381,0,0,1-.192.637,15.846,15.846,0,0,0-.178,3.361v1.762l2.458-.059a.5.5,0,0,1,.311.059.387.387,0,0,1,.044.237v2.339q0,.252-.089.3l4.042.059H19.34v-3.02H18.1l-3.76.059q-.266,0-.311-.059a.51.51,0,0,1-.044-.266V52.156q0-.237.059-.281a.6.6,0,0,1,.3-.044l3.76.059H19.34a21.079,21.079,0,0,0-.266-3.464q1.362.044,3.183.252.474.044.474.3a1.911,1.911,0,0,1-.178.607,8.209,8.209,0,0,0-.207,2.31h2.117l3.82-.059q.237,0,.281.059a.51.51,0,0,1,.044.266v2.161q0,.237-.059.281a.463.463,0,0,1-.266.044l-3.82-.059H22.346V57.6h3.331l4.027-.059q.341,0,.341.3V60q0,.237-.059.281a.553.553,0,0,1-.281.044l-4.027-.059H17.135l-4.1.059q-.237,0-.281-.059A.51.51,0,0,1,12.708,60V57.841a.4.4,0,0,1,.059-.266l-.785-.015q-.755-.03-1.614-.044V62.46q2.369-1.155,2.783-1.377,0,1.007.089,2.013H13.4l4.027.059H23.4a12.637,12.637,0,0,0-.207-2.428,24.268,24.268,0,0,1,3.094.326q.489.1.489.37a1.111,1.111,0,0,1-.178.518,2.629,2.629,0,0,0-.192,1.214l3.242-.059a.469.469,0,0,1,.3.059.51.51,0,0,1,.044.266v2.221a.445.445,0,0,1-.052.274.482.482,0,0,1-.289.052q-.044,0-.415-.015Q28,65.925,26.4,65.91V69l.059,3.76a2.952,2.952,0,0,1-1.036,2.576q-.977.666-4.027.666a1.552,1.552,0,0,1-.859-.133,2.031,2.031,0,0,1-.281-.8A6,6,0,0,0,19.311,72.794Zm-2.754-5.907a.839.839,0,0,1,.355-.133.446.446,0,0,1,.281.163,24.1,24.1,0,0,1,2.931,3.523.5.5,0,0,1,.118.252q0,.1-.3.326l-1.821,1.3a.916.916,0,0,1-.355.178q-.118,0-.222-.237a19.569,19.569,0,0,0-2.783-3.79.539.539,0,0,1-.133-.266q0-.1.281-.281ZM38.868,72.35q2.161.266,2.917.266a1.193,1.193,0,0,0,1.036-.429A3.332,3.332,0,0,0,43.25,70.8a35.271,35.271,0,0,0,.355-5.359H39.638a18.668,18.668,0,0,1-4.5,9.519q-.4.459-.577.459t-.518-.577a7.285,7.285,0,0,0-1.629-1.851,12.949,12.949,0,0,0,3.731-5.744,28.688,28.688,0,0,0,.992-7.624q-1.288.015-2.31.044l-.681.015a.54.54,0,0,1-.326-.059.553.553,0,0,1-.044-.281l.059-2.694V52.719l-.059-2.68q0-.252.074-.3a.6.6,0,0,1,.3-.044l3.538.059h5.048L46.27,49.7q.252,0,.3.059a.553.553,0,0,1,.044.281l-.059,2.68v3.923l.059,2.694q0,.252-.059.3a.553.553,0,0,1-.281.044l-3.538-.059H40.171q-.044,1.643-.178,3.094h4.042l2.324-.059q.4,0,.4.37-.089,1.584-.089,2.68a33.741,33.741,0,0,1-.577,6.914,3.594,3.594,0,0,1-3.849,3.005q-.918,0-1.5-.059a1.533,1.533,0,0,1-.785-.207,1.708,1.708,0,0,1-.237-.77A5.462,5.462,0,0,0,38.868,72.35Zm-2-19.927v4.619h6.647V52.423ZM51.244,72.379a31.382,31.382,0,0,0,3.361.148,1.543,1.543,0,0,0,1.066-.266,1.243,1.243,0,0,0,.266-.918V53.119a35.552,35.552,0,0,0-.237-4.338q1.865.059,3.272.222.489.044.489.326a2.145,2.145,0,0,1-.222.637,14.273,14.273,0,0,0-.178,3.094V65.865l.089,6.025a3.445,3.445,0,0,1-1.1,2.976,3.838,3.838,0,0,1-1.688.607,25.062,25.062,0,0,1-3.005.148q-.74,0-.873-.148a2.107,2.107,0,0,1-.281-.829A6.264,6.264,0,0,0,51.244,72.379ZM49.394,51q1.688.044,3.079.207.459.044.459.341a1.024,1.024,0,0,1-.089.355q-.1.252-.118.311a29.568,29.568,0,0,0-.089,3.242v8.365l.059,4.012q0,.222-.059.274a.523.523,0,0,1-.3.052H49.882q-.252,0-.3-.059a.51.51,0,0,1-.044-.266l.059-4.012V55.487A38.019,38.019,0,0,0,49.394,51ZM79.432,66.976q-.207-2.236-.266-5.211a11.772,11.772,0,0,0-.252-2.147,18.469,18.469,0,0,1,3.3.577.459.459,0,0,1,.429.474,3.452,3.452,0,0,1-.178.637,2.937,2.937,0,0,0-.133.9q0,.1.015.341a45.352,45.352,0,0,0,.326,5.152,26.853,26.853,0,0,1,5.463,2.828q.266.192.266.355a.686.686,0,0,1-.089.281,21.389,21.389,0,0,1-1.392,2.458q-.133.207-.281.207a.485.485,0,0,1-.3-.178,24.566,24.566,0,0,0-3.7-2.546A3.9,3.9,0,0,1,80.928,74.6a7.112,7.112,0,0,1-3.908.933A6.257,6.257,0,0,1,72.785,74.2a3.739,3.739,0,0,1-1.347-2.976,3.876,3.876,0,0,1,1.717-3.346A6.534,6.534,0,0,1,77.049,66.8,15.658,15.658,0,0,1,79.432,66.976Zm.059,2.887a7.722,7.722,0,0,0-2.472-.459,3.534,3.534,0,0,0-2.013.5,1.464,1.464,0,0,0-.681,1.258q0,1.451,2.576,1.451a2.826,2.826,0,0,0,2.013-.681,1.936,1.936,0,0,0,.607-1.466A4.231,4.231,0,0,0,79.492,69.863ZM74.562,54.3a30.884,30.884,0,0,0,3.76-.651.673.673,0,0,1,.222-.059q.178,0,.222.3a14.027,14.027,0,0,1,.281,2.458q0,.311-.37.355-1.569.326-5,.814a86.867,86.867,0,0,1-5.907,13.013q-.178.3-.341.3a.882.882,0,0,1-.355-.148,12.365,12.365,0,0,1-2.1-1.554.44.44,0,0,1-.207-.326.614.614,0,0,1,.148-.37,64.8,64.8,0,0,0,5.256-10.57q-1.155.059-3.035.059-.918,0-1.673-.03-.341,0-.429-.489a17.149,17.149,0,0,1-.3-2.576q1.643.118,2.813.118,1.762,0,3.494-.148.4-1.406.785-3.39a13.955,13.955,0,0,0,.192-2.458,27.421,27.421,0,0,1,3.538.637q.489.089.489.444a.806.806,0,0,1-.266.577,3.869,3.869,0,0,0-.489,1.125q-.074.252-.37,1.318Q74.71,53.814,74.562,54.3Zm6.721,2.887q1.244-2.206,1.362-2.369.178-.281.37-.281a.821.821,0,0,1,.266.059,21.29,21.29,0,0,1,5.951,2.857q.266.178.266.326a.766.766,0,0,1-.118.37,17.016,17.016,0,0,1-1.273,2.25q-.133.207-.281.207a.5.5,0,0,1-.266-.118A25.951,25.951,0,0,0,81.283,57.19ZM112.965,49.7l4.2-.059q.252,0,.3.059a.553.553,0,0,1,.044.281l-.059,3.2v6.5l.059,3.2a.563.563,0,0,1-.052.311q-.052.059-.289.059l-4.2-.059H101.314l-4.2.059q-.252,0-.3-.074a.6.6,0,0,1-.044-.3l.059-3.2v-6.5l-.059-3.2q0-.252.059-.3a.553.553,0,0,1,.281-.044l4.2.059Zm1.362,10.911V57.649h-5.789V60.61Zm0-8.276h-5.789v2.887h5.789ZM99.952,60.61h5.522V57.649H99.952Zm0-5.389h5.522V52.334H99.952Zm11.918,13.724a10.308,10.308,0,0,0,2.339.918,1.665,1.665,0,0,1,.607.237.424.424,0,0,1,.133.355q0,.133-.03.444-.415,2.961-1.791,3.76a6.6,6.6,0,0,1-2.487.681q-1.244.133-3.642.133-3.894,0-5.063-.7a2.847,2.847,0,0,1-1.066-2.576V67.731a18.857,18.857,0,0,0-.148-2.5q1.273,0,3.094.178.548.074.548.355a1.065,1.065,0,0,1-.148.518,3.09,3.09,0,0,0-.192,1.3v3.435q0,.977.459,1.244a7.007,7.007,0,0,0,2.754.326q3.035,0,3.82-.607T111.869,68.945ZM98.678,66.68q.4.118.4.311a.663.663,0,0,1-.03.178,23.455,23.455,0,0,1-3.005,6.662q-.118.207-.237.207a.907.907,0,0,1-.341-.148L93.5,72.616q-.341-.207-.341-.355a.536.536,0,0,1,.133-.281,17.909,17.909,0,0,0,2.842-5.818q.074-.266.178-.266a1.477,1.477,0,0,1,.341.118Zm18.713-.947a32.874,32.874,0,0,1,3.553,5.759.683.683,0,0,1,.059.237q0,.178-.311.34l-2.028,1.1a1.179,1.179,0,0,1-.4.148q-.118,0-.207-.207a27.961,27.961,0,0,0-3.405-5.966.609.609,0,0,1-.089-.222q0-.089.311-.266l1.91-1.007a.729.729,0,0,1,.326-.118Q117.229,65.525,117.391,65.732Zm-9.978-2.117a22.211,22.211,0,0,1,3.672,3.612.406.406,0,0,1,.1.237q0,.133-.281.37l-1.673,1.332a.853.853,0,0,1-.37.192q-.1,0-.237-.163a19.256,19.256,0,0,0-3.464-3.879.459.459,0,0,1-.148-.281q0-.133.252-.3l1.51-1.125a.416.416,0,0,1,.637,0ZM125.86,52.674a11.872,11.872,0,0,1,3.849.992q.489.222.489.548a2.454,2.454,0,0,1-.252.844,11.165,11.165,0,0,0-.266,2.976,40.332,40.332,0,0,0,.548,6.914q.785,4.456,2.487,4.456.77,0,1.466-1.066a16.835,16.835,0,0,0,1.436-3.153,12.7,12.7,0,0,0,1.939,2.339.856.856,0,0,1,.311.651,1.521,1.521,0,0,1-.089.474,8.561,8.561,0,0,1-2.4,3.672,4.2,4.2,0,0,1-2.754,1.051q-2.013,0-3.627-2.31a13.472,13.472,0,0,1-2.043-5.6,53.224,53.224,0,0,1-.725-8.824A18.579,18.579,0,0,0,125.86,52.674Zm15.53,4.293q1.5-.947,2.384-1.392a1.042,1.042,0,0,1,.34-.118.493.493,0,0,1,.326.178,17.94,17.94,0,0,1,3.923,5.034,18.447,18.447,0,0,1,2.013,5.344.664.664,0,0,1,.03.178q0,.266-.355.489a11.263,11.263,0,0,1-2.369,1.214.938.938,0,0,1-.266.044q-.3,0-.37-.385a24.248,24.248,0,0,0-2.236-6.1A20.421,20.421,0,0,0,141.39,56.968Zm33.917-5.226q1.688.044,3.139.207.489.044.489.326a2.59,2.59,0,0,1-.148.607,12.066,12.066,0,0,0-.207,2.976v4.279l.059,2.887a.594.594,0,0,1-.044.3q-.044.052-.252.052h-2.517a.54.54,0,0,1-.326-.059.6.6,0,0,1-.044-.3V61.9h-6.218v9.327h7.2V68.93a30.146,30.146,0,0,0-.192-3.849q1.777.044,3.183.207.459.059.459.341a2.834,2.834,0,0,1-.148.607,11.089,11.089,0,0,0-.222,2.961v3.672l.059,2.665q0,.311-.326.311h-2.487q-.326,0-.326-.311V74.141H159.185v1.54q0,.311-.34.311h-2.487a.644.644,0,0,1-.311-.044q-.059-.044-.059-.266l.059-2.665v-4a32.3,32.3,0,0,0-.178-3.82q1.777.044,3.183.207.518.059.518.34a5.007,5.007,0,0,1-.178.607,9.535,9.535,0,0,0-.207,2.635v2.235h6.81V61.9h-5.848v1.244q0,.237-.059.281a.51.51,0,0,1-.266.044H157.29q-.237,0-.281-.059a.51.51,0,0,1-.044-.266l.059-2.887V55.709a33.431,33.431,0,0,0-.178-3.879q1.777.044,3.183.207.459.044.459.37a1.115,1.115,0,0,1-.059.311q-.074.222-.089.3a9.892,9.892,0,0,0-.192,2.665v3.3h5.848V52.349a32.137,32.137,0,0,0-.207-3.923q1.569.044,3.331.252.459.044.459.3a2.547,2.547,0,0,1-.192.607,14.443,14.443,0,0,0-.148,2.8v6.6h6.218v-3.39Q175.455,53.207,175.307,51.742Zm13.206-1.1a14.135,14.135,0,0,1,3.257,1.11q.7.37.7.725a2.432,2.432,0,0,1-.459.918,9.188,9.188,0,0,0-.725,2.147,45.388,45.388,0,0,0-1.273,9.8,32.221,32.221,0,0,0,.178,3.538q2.058-4.5,2.058-4.515a11.6,11.6,0,0,0,1.066,1.91,1.354,1.354,0,0,1,.207.459.963.963,0,0,1-.148.489,32.838,32.838,0,0,0-1.732,4.575,3.516,3.516,0,0,0-.089.947l.059.844q0,.311-.4.4a16.069,16.069,0,0,1-2.472.489h-.059q-.252,0-.34-.341a19.863,19.863,0,0,1-1.066-4.486,33.39,33.39,0,0,1-.326-4.545,57.519,57.519,0,0,1,1.036-9.949A30.227,30.227,0,0,0,188.513,50.646ZM195.5,66.28l2.754-.237h.059q.237,0,.237.459a2.626,2.626,0,0,0,1.466,2.295,8.412,8.412,0,0,0,3.479.548,51.047,51.047,0,0,0,5.789-.385,1.268,1.268,0,0,1,.133-.015q.237,0,.3.4a18.834,18.834,0,0,1,.178,2.606q0,.3-.074.355a1.174,1.174,0,0,1-.444.089,42.034,42.034,0,0,1-4.945.34,16.666,16.666,0,0,1-5.374-.666,5.278,5.278,0,0,1-2.5-1.851A6.306,6.306,0,0,1,195.5,66.28Zm.962-8.6q.044-2.606.089-2.976a.516.516,0,0,1,.429-.518,36.04,36.04,0,0,1,6.588-.548q2.576,0,4.486.178a1.381,1.381,0,0,1,.607.118q.089.059.089.281,0,1.732-.059,2.576-.044.37-.326.37h-.074q-2.724-.192-4.945-.192A38.881,38.881,0,0,0,196.463,57.678Z" transform="translate(17.711 471.475)" fill="#fff"/>
    <text id="国内実績No.1_のドローンショー専門企業が_オリジナルのドローンショーを提供します" data-name="国内実績No.1  のドローンショー専門企業が、
オリジナルのドローンショーを提供します" transform="translate(20 604)" fill="#fff" font-size="16" font-family="YuGothic-Bold, Yu Gothic" font-weight="700"><tspan x="0" y="0" xml:space="preserve">国内実績No.1  のドローンショー専門企業が、</tspan><tspan x="0" y="20">オリジナルのドローンショーを提供します</tspan></text>
  </g>
</svg>
